<svg xmlns="http://www.w3.org/2000/svg" viewBox="0 0 23.204 23.195">
    <defs>
        <style>
            .cls-1{fill:#4db9f1}.cls-2{fill:#ff8181}
        </style>
    </defs>
    <g id="Group_329" data-name="Group 329" transform="translate(-610.071 -4455.996)">
        <path id="Path_175" d="M17.24 2.373c-4.923 2.4-9.768 4.767-14.666 7.15 1.079.687 2.088 1.331 3.105 1.966.539.348.713.826.452 1.261a1.027 1.027 0 0 1-1.479.3c-1.374-.9-2.749-1.818-4.14-2.7a.833.833 0 0 1 .079-1.566c5.75-2.844 11.482-5.732 17.223-8.6a.923.923 0 0 1 1.018-.046.906.906 0 0 1 .27 1.018q-.926 4.7-1.87 9.4-.783 3.914-1.557 7.829a.845.845 0 0 1-1.383.557q-1.9-1.266-3.793-2.531c-.13-.087-.261-.165-.426-.27-.644.652-1.279 1.279-1.914 1.922-.278.278-.583.522-.992.357a.95.95 0 0 1-.557-.992c.009-1.235-.009-2.462.017-3.7a1.135 1.135 0 0 1 .261-.652q3.2-3.471 6.411-6.924a.857.857 0 0 1 1.3-.13.874.874 0 0 1-.052 1.3c-1.975 2.14-3.949 4.288-5.941 6.411a1.357 1.357 0 0 0-.461 1.183 6.21 6.21 0 0 1 .009.722c.391-.331.713-.609 1.035-.879.7-.609.844-.609 1.635-.1 1.131.722 2.27 1.444 3.462 2.2.98-4.822 1.954-9.597 2.954-14.486z" class="cls-1" data-name="Path 175" transform="rotate(14 -17838.238 4731.159)"/>
        <circle id="Ellipse_63" cx="4.205" cy="4.205" r="4.205" class="cls-2" data-name="Ellipse 63" transform="translate(624.776 4467.062)"/>
    </g>
</svg>
