<svg xmlns="http://www.w3.org/2000/svg" viewBox="0 0 64 66.057">
    <defs>
        <style>
            .cls-1{fill:url(#radial-gradient)}.cls-2{fill:url(#radial-gradient-2)}.cls-3{fill:url(#linear-gradient)}.cls-4{fill:url(#radial-gradient-3)}.cls-5{fill:url(#radial-gradient-4)}.cls-6{fill:url(#radial-gradient-5)}.cls-7{fill:url(#radial-gradient-6)}.cls-8{fill:url(#radial-gradient-7)}.cls-9{fill:url(#linear-gradient-2)}.cls-10{fill:url(#linear-gradient-3)}.cls-11{fill:url(#linear-gradient-4)}.cls-12{fill:url(#linear-gradient-5)}.cls-13{fill:url(#linear-gradient-6)}.cls-14{fill:url(#linear-gradient-7)}
        </style>
        <radialGradient id="radial-gradient" cx="804.569" cy="101.403" r="8.378" fx="802.638" gradientTransform="matrix(2.753 .123 -.181 4.046 -40.104 -26.81)" gradientUnits="userSpaceOnUse">
            <stop offset=".045" stop-color="#ffea00"/>
            <stop offset=".12" stop-color="#ffde00"/>
            <stop offset=".254" stop-color="#ffbf00"/>
            <stop offset=".429" stop-color="#ff8e00"/>
            <stop offset=".769" stop-color="#ff272d"/>
            <stop offset=".872" stop-color="#e0255a"/>
            <stop offset=".953" stop-color="#cc2477"/>
            <stop offset="1" stop-color="#c42482"/>
        </radialGradient>
        <radialGradient id="radial-gradient-2" cx="110.787" cy="90.727" r="64.722" gradientTransform="translate(-.219 -.033) scale(1.005)" gradientUnits="userSpaceOnUse">
            <stop offset="0" stop-color="#00ccda"/>
            <stop offset=".22" stop-color="#0083ff"/>
            <stop offset=".261" stop-color="#007af9"/>
            <stop offset=".33" stop-color="#0060e8"/>
            <stop offset=".333" stop-color="#005fe7"/>
            <stop offset=".438" stop-color="#2639ad"/>
            <stop offset=".522" stop-color="#401e84"/>
            <stop offset=".566" stop-color="#4a1475"/>
        </radialGradient>
        <linearGradient id="linear-gradient" x1=".573" x2=".351" y1=".752" y2=".068" gradientUnits="objectBoundingBox">
            <stop offset="0" stop-color="#000f43" stop-opacity=".4"/>
            <stop offset=".485" stop-color="#001962" stop-opacity=".173"/>
            <stop offset="1" stop-color="#002079" stop-opacity="0"/>
        </linearGradient>
        <radialGradient id="radial-gradient-3" cx="738.636" cy="659.965" r="23.774" gradientTransform="matrix(.919 .093 -.093 .919 -.481 -2.951)" gradientUnits="userSpaceOnUse">
            <stop offset=".003" stop-color="#ffea00"/>
            <stop offset=".497" stop-color="#ff272d"/>
            <stop offset="1" stop-color="#c42482"/>
        </radialGradient>
        <radialGradient id="radial-gradient-4" cx="868.044" cy="416.973" r="19.849" gradientTransform="matrix(1.837 .185 -.185 1.837 -5.525 17.551)" gradientUnits="userSpaceOnUse">
            <stop offset=".003" stop-color="#ffe900"/>
            <stop offset=".157" stop-color="#ffaf0e"/>
            <stop offset=".316" stop-color="#ff7a1b"/>
            <stop offset=".472" stop-color="#ff4e26"/>
            <stop offset=".621" stop-color="#ff2c2e"/>
            <stop offset=".762" stop-color="#ff1434"/>
            <stop offset=".892" stop-color="#ff0538"/>
            <stop offset="1" stop-color="#ff0039"/>
        </radialGradient>
        <radialGradient id="radial-gradient-5" cx="563.141" cy="814.653" r="63.051" gradientTransform="matrix(.531 .054 -.054 .531 15.299 -9.538)" gradientUnits="userSpaceOnUse">
            <stop offset=".003" stop-color="#ff272d"/>
            <stop offset=".497" stop-color="#c42482"/>
            <stop offset=".986" stop-color="#620700"/>
        </radialGradient>
        <radialGradient id="radial-gradient-6" cx="83.011" cy="41.512" r="50.38" fx="84.889" fy="40.584" gradientTransform="translate(-2.028 -1.078) scale(1.042)" gradientUnits="userSpaceOnUse">
            <stop offset=".156" stop-color="#ffea00"/>
            <stop offset=".231" stop-color="#ffde00"/>
            <stop offset=".365" stop-color="#ffbf00"/>
            <stop offset=".541" stop-color="#ff8e00"/>
            <stop offset=".763" stop-color="#ff272d"/>
            <stop offset=".796" stop-color="#f92433"/>
            <stop offset=".841" stop-color="#e91c45"/>
            <stop offset=".893" stop-color="#cf0e62"/>
            <stop offset=".935" stop-color="#b5007f"/>
        </radialGradient>
        <radialGradient id="radial-gradient-7" cx="605.275" cy="2.087" r="24.583" gradientTransform="translate(-9.427 -.132) scale(2.522)" gradientUnits="userSpaceOnUse">
            <stop offset=".279" stop-color="#ffea00"/>
            <stop offset=".402" stop-color="#fd0"/>
            <stop offset=".63" stop-color="#ffba00"/>
            <stop offset=".856" stop-color="#ff9100"/>
            <stop offset=".933" stop-color="#ff6711"/>
            <stop offset=".994" stop-color="#ff4a1d"/>
        </radialGradient>
        <linearGradient id="linear-gradient-2" x1="-69.206" x2="-67.095" y1="-45.201" y2="-45.673" gradientUnits="objectBoundingBox">
            <stop offset="0" stop-color="#c42482" stop-opacity=".502"/>
            <stop offset=".474" stop-color="#ff272d" stop-opacity=".502"/>
            <stop offset=".486" stop-color="#ff2c2c" stop-opacity=".514"/>
            <stop offset=".675" stop-color="#ff7a1a" stop-opacity=".722"/>
            <stop offset=".829" stop-color="#ffb20d" stop-opacity=".871"/>
            <stop offset=".942" stop-color="#ffd605" stop-opacity=".965"/>
            <stop offset="1" stop-color="#ffe302"/>
        </linearGradient>
        <linearGradient id="linear-gradient-3" x1="1.177" x2=".677" y1="-7.361" y2="-8.226" gradientUnits="objectBoundingBox">
            <stop offset="0" stop-color="#891551" stop-opacity=".6"/>
            <stop offset="1" stop-color="#c42482" stop-opacity="0"/>
        </linearGradient>
        <linearGradient id="linear-gradient-4" x1="-1.042" x2="-.589" y1=".949" y2="1.329" gradientUnits="objectBoundingBox">
            <stop offset=".005" stop-color="#891551" stop-opacity=".502"/>
            <stop offset=".484" stop-color="#ff272d" stop-opacity=".502"/>
            <stop offset="1" stop-color="#ff272d" stop-opacity="0"/>
        </linearGradient>
        <linearGradient id="linear-gradient-5" x1="-.234" x2="-.234" y1="3.229" y2="2.516" gradientUnits="objectBoundingBox">
            <stop offset="0" stop-color="#c42482"/>
            <stop offset=".083" stop-color="#c42482" stop-opacity=".812"/>
            <stop offset=".206" stop-color="#c42482" stop-opacity=".565"/>
            <stop offset=".328" stop-color="#c42482" stop-opacity=".361"/>
            <stop offset=".447" stop-color="#c42482" stop-opacity=".204"/>
            <stop offset=".562" stop-color="#c42482" stop-opacity=".09"/>
            <stop offset=".673" stop-color="#c42482" stop-opacity=".024"/>
            <stop offset=".773" stop-color="#c42482" stop-opacity="0"/>
        </linearGradient>
        <linearGradient id="linear-gradient-6" x1=".063" x2=".924" y1=".016" y2=".895" gradientUnits="objectBoundingBox">
            <stop offset="0" stop-color="#fff14f"/>
            <stop offset=".268" stop-color="#ffee4c"/>
            <stop offset=".452" stop-color="#ffe643"/>
            <stop offset=".612" stop-color="#ffd834"/>
            <stop offset=".757" stop-color="#ffc41e"/>
            <stop offset=".892" stop-color="#ffab02"/>
            <stop offset=".902" stop-color="#ffa900"/>
            <stop offset=".949" stop-color="#ffa000"/>
            <stop offset="1" stop-color="#ff9100"/>
        </linearGradient>
        <linearGradient id="linear-gradient-7" x1=".718" x2=".427" y1=".072" y2=".819" gradientUnits="objectBoundingBox">
            <stop offset="0" stop-color="#ff8e00"/>
            <stop offset=".04" stop-color="#ff8e00" stop-opacity=".859"/>
            <stop offset=".084" stop-color="#ff8e00" stop-opacity=".729"/>
            <stop offset=".13" stop-color="#ff8e00" stop-opacity=".627"/>
            <stop offset=".178" stop-color="#ff8e00" stop-opacity=".557"/>
            <stop offset=".227" stop-color="#ff8e00" stop-opacity=".514"/>
            <stop offset=".282" stop-color="#ff8e00" stop-opacity=".502"/>
            <stop offset=".389" stop-color="#ff8e00" stop-opacity=".478"/>
            <stop offset=".524" stop-color="#ff8e00" stop-opacity=".416"/>
            <stop offset=".676" stop-color="#ff8e00" stop-opacity=".314"/>
            <stop offset=".838" stop-color="#ff8e00" stop-opacity=".173"/>
            <stop offset="1" stop-color="#ff8e00" stop-opacity="0"/>
        </linearGradient>
    </defs>
    <g id="firefox-logo" transform="translate(-35 -2)">
        <path id="Path_202" d="M782.521 93.558c-1.608 1.872-2.356 6.085-.726 10.355s4.129 3.343 5.686 7.7c2.056 5.746 1.1 13.466 1.1 13.466s2.471 7.157 4.193-.445c3.811-14.281-10.253-27.56-10.253-31.076z" class="cls-1" data-name="Path 202" transform="translate(-695.811 -85.412)"/>
        <path id="_Path_" d="M99.416 144.467a29.943 29.943 0 1 0-29.767-29.942 29.87 29.87 0 0 0 29.767 29.942z" class="cls-2" data-name="&lt;Path&gt;" transform="translate(-32.323 -77.039)"/>
        <path id="Path_203" d="M132.395 93.888a16.573 16.573 0 0 1-2.022 1.221 47.259 47.259 0 0 0 2.571-4.227 16.6 16.6 0 0 0 1.691-2.125c.231-.363.491-.811.766-1.33a28.724 28.724 0 0 0 3.57-12.9v-.012-.37a17.294 17.294 0 0 0-.383-3.742l.037.288c-.015-.074-.027-.148-.043-.222.025.137.044.269.066.4.342 2.9.1 5.731-1.12 7.817l-.058.089a26.025 26.025 0 0 0 .14-10.177 40.8 40.8 0 0 0-2.375-6.877 21.146 21.146 0 0 0-5.236-7.2 57.185 57.185 0 0 0-3.993-4.3 11.576 11.576 0 0 1-2.758-4.086c-.259-.13-3.567-3.344-3.83-3.466-1.444 2.239-5.986 9.242-3.825 15.785a16.271 16.271 0 0 0 6.046 7.769 10.771 10.771 0 0 1 2.221 5.18c.7 3.614.333 6.435-1.111 10.605-1.7 3.659-6.046 7.276-10.118 7.646-8.705.791-11.892-4.371-11.892-4.371a10.132 10.132 0 0 0 8.641-.306c2.108-1.3 3.383-2.271 4.418-1.89s1.833-.722 1.1-1.864a5.27 5.27 0 0 0-5.33-2.321c-2.11.343-4.043 2.015-6.808.4a5.741 5.741 0 0 1-.519-.34c-.182-.12.592.182.412.046a13.517 13.517 0 0 1-1.737-1.156c-.041-.038.417.146.376.108-2.585-2.129-2.262-3.567-2.181-4.469a2.59 2.59 0 0 1 1.326-2.021c.382.209.62.368.62.368s-.163-.333-.251-.509c.031-.013.06-.01.091-.023.313.151 1.005.544 1.37.783a2.016 2.016 0 0 1 .626.633s.125-.069.033-.361a1.876 1.876 0 0 0-.648-.884h.029a5.451 5.451 0 0 1 .8.553 4.777 4.777 0 0 0 .319-1.886 2.717 2.717 0 0 0-.129-1.042c-.1-.21.056-.292.229-.074a2.2 2.2 0 0 0-.148-.5v-.016c.216-.754 4.582-2.716 4.9-2.945a4.522 4.522 0 0 0 1.284-1.4 3.58 3.58 0 0 0 .47-1.753c.024-.594-.252-.989-4.666-1.451a2.956 2.956 0 0 1-2.318-1.8c-.073-.174-.148-.331-.223-.489a3.893 3.893 0 0 1-.172-.566 10.6 10.6 0 0 1 3.717-5.149c.1-.088-.388.023-.291-.066a9.146 9.146 0 0 1 .993-.468c.171-.081-.731-.463-1.526-.37a3.774 3.774 0 0 0-1.415.371c.179-.179.75-.413.616-.411a8.537 8.537 0 0 0-2.887 1.217.72.72 0 0 1 .056-.292 4.588 4.588 0 0 0-1.8 1.554 2.977 2.977 0 0 0 .018-.363 5.671 5.671 0 0 0-.886.928l-.016.015a10.62 10.62 0 0 0-6.582-.623c-.409-.41-.608-.11-1.538-2.153-.063-.123.048.121 0 0-.153-.4.093.528 0 0-1.563 1.233-3.62 2.631-4.607 3.618-.012.039 1.152-.329 0 0-.4.115-.376.355-.437 2.517-.015.164 0 .348-.015.5a13.867 13.867 0 0 0-1.529 2.3 34.719 34.719 0 0 0-3.232 8.831 22.447 22.447 0 0 1 1.731-3.383 34.462 34.462 0 0 0-1.956 11.476 32.465 32.465 0 0 1 .841-3.4 31.755 31.755 0 0 0 2.332 13.5 32.932 32.932 0 0 0 3.426 6.4 30.342 30.342 0 0 0 44.73-.77z" class="cls-3" data-name="Path 203" transform="translate(-42.974 -37.94)"/>
        <path id="Path_204" d="M724.76 691.438c10.934-1.266 15.774-12.533 9.558-12.755-5.618-.183-14.737 13.353-9.558 12.755z" class="cls-4" data-name="Path 204" transform="translate(-642.023 -631.256)"/>
        <path id="Path_205" d="M868.462 452.178c7.522-4.378 5.561-13.834 5.561-13.834a30.923 30.923 0 0 0-4.875 8.748c-1.948 5.324-5.209 7.73-.686 5.086z" class="cls-5" data-name="Path 205" transform="translate(-775.38 -407.052)"/>
        <path id="Path_206" d="M529.727 839.169c10.488 3.346 19.5-4.915 13.945-7.674-5.051-2.488-18.923 6.092-13.945 7.674z" class="cls-6" data-name="Path 206" transform="translate(-460.526 -773.391)"/>
        <path id="Path_207" d="M93.863 62.2c.255-.36.6-1.513.9-2.028a11.3 11.3 0 0 0 1.865-5.427c1.118-5.587 1.017-7.868.329-12.086a25.283 25.283 0 0 0-5.073-10.607c-2.162-2.414-.639-1.628-2.732-3.391-1.834-2.034-3.613-4.047-4.582-4.857-7-5.852-6.842-7.1-6.707-7.307l-.1.11c-.083-.33-.141-.608-.141-.608A18.784 18.784 0 0 0 73 26.2a15.589 15.589 0 0 0 3.289 11.278 25.6 25.6 0 0 0 3.961 3.894 15.19 15.19 0 0 1 2.644 8.721 14.758 14.758 0 0 1-18.048 14.368 12.106 12.106 0 0 1-7.168-3.986 7.219 7.219 0 0 1-.9-1.3c3.443 1.233 7.249.975 9.564-.3 2.333-1.293 3.744-2.252 4.89-1.874 1.129.376 2.028-.716 1.222-1.849a6.092 6.092 0 0 0-5.9-2.3c-2.335.34-4.475 2-7.535.392a6.465 6.465 0 0 1-.574-.337c-.2-.119.656.181.456.046a15.189 15.189 0 0 1-1.927-1.153c-.046-.037.462.145.416.107-2.861-2.111-2.5-3.537-2.414-4.432a2.568 2.568 0 0 1 1.467-2c.423.207.686.365.686.365s-.18-.33-.278-.5c.034-.013.067-.01.1-.023.347.15 1.113.539 1.516.777a2.1 2.1 0 0 1 .693.628s.138-.068.036-.358a1.872 1.872 0 0 0-.717-.877h.033a6.1 6.1 0 0 1 .882.549 4.3 4.3 0 0 0 .353-1.87 2.436 2.436 0 0 0-.143-1.033c-.111-.208.062-.289.254-.073a2.017 2.017 0 0 0-.164-.493v-.016c.24-.748 5.071-2.694 5.422-2.921a4.72 4.72 0 0 0 1.421-1.385 3.281 3.281 0 0 0 .52-1.738c.017-.368-.1-.659-1.376-.937a34.525 34.525 0 0 0-3.788-.5 3.229 3.229 0 0 1-2.565-1.786 10.917 10.917 0 0 0-.247-.485 3.566 3.566 0 0 1-.19-.561 10.638 10.638 0 0 1 4.114-5.106c.107-.088-.43.022-.322-.065a10.7 10.7 0 0 1 1.1-.464c.189-.08-.809-.459-1.689-.367a4.555 4.555 0 0 0-1.566.368c.2-.177.83-.409.682-.408a10.077 10.077 0 0 0-3.2 1.207.65.65 0 0 1 .062-.289 4.972 4.972 0 0 0-2 1.541 2.651 2.651 0 0 0 .02-.359 5.953 5.953 0 0 0-.98.92l-.018.015a13.026 13.026 0 0 0-7.285-.618 8.836 8.836 0 0 1-2.208-3.048c-.07-.122-.107.252-.161.132a9.324 9.324 0 0 1-.6-3.494 3.705 3.705 0 0 0-1.511 1.951c-.127.283-.209.439-.29.6-.037.046.085-.517.065-.486a4.469 4.469 0 0 0-.562.847 6.531 6.531 0 0 0-.306.758l-.02.031c-.007-.1.025-.408 0-.345a15.85 15.85 0 0 0-.826 2 18.675 18.675 0 0 0-.865 5.006c-.016.163 0 .345-.017.491a13.719 13.719 0 0 0-1.692 2.278 32.33 32.33 0 0 0-3.577 8.758 21.424 21.424 0 0 1 1.916-3.356A31.034 31.034 0 0 0 35 52.1a29.439 29.439 0 0 1 .931-3.373 28.571 28.571 0 0 0 2.581 13.385 31.133 31.133 0 0 0 12.327 13.97 26.975 26.975 0 0 0 7.184 3.441c.336.122.676.242 1.023.358a6.573 6.573 0 0 1-.317-.138 32.55 32.55 0 0 0 9.318 1.369c11.76.01 15.228-4.713 15.228-4.713l-.034.025q.249-.234.48-.487c-1.855 1.752-6.09 1.868-7.673 1.742 2.7-.793 4.477-1.464 7.933-2.787q.607-.225 1.241-.513l.138-.063c.084-.039.167-.076.252-.117a23.442 23.442 0 0 0 4.717-2.953 11.822 11.822 0 0 0 4.621-7.257 10.13 10.13 0 0 1-.347.827c-.894 1.912-2.876 3.085-5.029 4.091a46.255 46.255 0 0 0 2.846-4.191c.699-.691.919-1.782 1.443-2.516z" class="cls-7" data-name="Path 207" transform="translate(0 -13.06)"/>
        <path id="Path_208" d="M615.853 55.77a22.239 22.239 0 0 0 3.647-5.37c2.477-5.208 6.307-13.868 3.291-22.912a32.4 32.4 0 0 0-9.813-14.875c-6.75-6.2-8.635-8.969-8.635-10.615 0 0-7.793 8.687-4.413 17.748s10.3 8.729 14.881 18.184c5.389 11.129-4.358 23.27-12.42 26.67.494-.11 17.922-4.054 18.838-14.022-.021.182-.414 2.939-5.376 5.192z" class="cls-8" data-name="Path 208" transform="translate(-526.214)"/>
        <path id="Path_209" d="M386.947 262.225c.026-.589-.279-.984-5.148-1.441a3.672 3.672 0 0 1-3-2.816 13.916 13.916 0 0 0-.848 6.141 11.792 11.792 0 0 0 1.636 4.16s.11-.143.161-.2c.93-.969 4.829-2.445 5.2-2.654a4.265 4.265 0 0 0 1.999-3.19z" class="cls-9" data-name="Path 209" transform="translate(-319.886 -238.786)"/>
        <path id="Path_210" d="M122.2 111.771c-.07-.122-.107.252-.161.132a8.917 8.917 0 0 1-.585-3.492 3.706 3.706 0 0 0-1.511 1.951c-.127.283-.209.439-.29.6-.037.046.085-.517.065-.486a4.77 4.77 0 0 0-.56.831 4.887 4.887 0 0 0-.31.79c-.026.1.026-.424 0-.361a18.029 18.029 0 0 0-1.728 7.531 15.688 15.688 0 0 1 7.272-4.476 8.24 8.24 0 0 1-2.2-3.013z" class="cls-10" data-name="Path 210" transform="translate(-76.569 -99.267)"/>
        <path id="Path_211" d="M248.568 470.3c-4.681-2-10-4.817-9.8-11.22.274-8.433 7.864-6.766 7.864-6.766a2.747 2.747 0 0 0-1.324 1.2 3.634 3.634 0 0 0 .775 4.088c2.49 2.7-5.115 6.4 6.623 13.4a11.3 11.3 0 0 1-4.138-.7z" class="cls-11" data-name="Path 211" transform="translate(-190.083 -419.958)"/>
        <path id="Path_212" d="M276.681 572.21c3.319 1.155 7.186.953 9.5-.326 1.55-.863 3.538-2.244 4.761-1.9a8.317 8.317 0 0 0-2.826-.662c-.164 0-.361 0-.54-.021a9.141 9.141 0 0 0-1.058.058 10.552 10.552 0 0 1-1.862.371c-.033 0 .584-.253.534-.242-.319.067-.666.081-1.032.126-.233.026-.433.055-.664.065-6.913.586-12.756-3.747-12.756-3.747-.5 1.675 2.226 4.988 5.942 6.282z" class="cls-12" data-name="Path 212" transform="translate(-219.859 -526.071)"/>
        <path id="Path_213" d="M647.5 77.551c6.992-6.865 10.53-15.211 9.035-24.571a19.792 19.792 0 0 1-1.668 9.709 25.756 25.756 0 0 0-1.677-16.916c-3.86-8.232-10.207-12.564-12.63-14.371-3.672-2.738-5.194-5.526-5.221-6.1-1.1 2.247-4.415 9.949-.356 16.581 3.8 6.214 9.792 8.058 13.985 13.758 7.732 10.499-1.468 21.91-1.468 21.91z" class="cls-13" data-name="Path 213" transform="translate(-557.878 -21.736)"/>
        <path id="Path_214" d="M389.942 403.637c-2.444-5.048-5.494-7.25-8.379-9.637.336.47.418.636.6.94a17.823 17.823 0 0 1 3.565 17.6c-5.117 15.6-25.586 8.254-27.732 6.19.868 9.028 15.979 13.349 25.818 7.494 5.603-5.305 10.132-14.314 6.128-22.587z" class="cls-14" data-name="Path 214" transform="translate(-301.317 -365.685)"/>
    </g>
</svg>
