<svg xmlns="http://www.w3.org/2000/svg" viewBox="0 0 820.975 695.862">
    <defs>
        <style>
            .cls-1{opacity:.099}.cls-2,.cls-3{fill:#fff}.cls-3{fill-rule:evenodd}
        </style>
    </defs>
    <g id="Logo_of_the_United_Nations__B_W_" class="cls-1" data-name="Logo_of_the_United_Nations_(B&amp;W)" transform="translate(.001)">
        <g id="g2086" transform="translate(-.001)">
            <path id="path1989" d="M950.194 686.662c-25.026 6.7-51.731 8.857-76.036 17.145 41.165-35.3 38.815-89.91 66.28-131.481 8.749-11.77 15.98-24.108 26.178-35.277-16.706 33.512-9.461 76.991-28.653 109.512a141.859 141.859 0 0 1-29.638 35.6c3.818-.143 7.159-3.448 10.516-5.655 31.173-31.107 71.9-39.807 105.619-65.08 13.508-10.763 25.879-24.867 31.818-40.122-6.381 51.611-57.726 99.985-106.084 115.362z" class="cls-2" transform="translate(-262.404 -120.621)"/>
            <path id="path1991" d="M1029.072 536.436c-15.252 21.7-33.7 41.907-47.793 63.964 1.572-17.464 3.641-38.938-3.162-55.48-11.788-35.624-22.145-71.794-25.487-110.891l.46-14.95c8.871 39.927 48.093 67.373 45.618 112.159.9 10.854-2.459 20.081-4.491 29.626l.674.705 1.767-1.98c5.816-21.969 8.751-45.069 17.795-65.565 12.852-29.495 28.9-59.262 22.361-94.874 19.548 41.986 13.626 98.084-7.742 137.287z" class="cls-2" transform="translate(-228.979 -179.358)"/>
            <path id="path1993" d="M1012.8 341.788c25.718 34.854 31.355 90.4 12.623 130.375a227.392 227.392 0 0 0-14.656 53.747c-1.309-3.235-1.608-7.583-2.776-11.187-10.23-39.133-47.24-67.022-62.46-103.917-4.827-12.065-8.942-24.532-11.224-37.629 16.264 30.08 56.345 45.617 67.269 78.766 4.475 8.384 4.224 18.859 7 27.873a1.124 1.124 0 0 0 1.166-1.025c-4.809-34.147-3.341-69.885 1.293-103.608-.268-18.267-2.05-35.986-12.2-50.125 6.508 3.791 9.438 11.074 13.964 16.73z" class="cls-2" transform="translate(-236.783 -210.917)"/>
            <path id="path1995" d="M1005.614 350.712c6.755 30.542-3.112 60.286 3.094 91.121l-.231.265c-16.615-32.673-51.89-48.093-76.161-74.243-14.066-15.518-20.181-34.43-23.7-54.454 13.907 33.528 51.434 40.916 72.978 69.169 7.209 6.513 9.561 15.537 14.209 22.923l.76-.734c-12.39-26.448-16.541-56.213-25.185-84.421-4.328-12.223-12.918-24.232-24.443-31.939 28.281 5.78 52.792 35.305 58.679 62.312z" class="cls-2" transform="translate(-247.727 -226.531)"/>
            <path id="path1997" d="M942.187 292.13c21.3 19.063 30.933 43.745 37.153 69.319l3.518 8.122c-30.915-22.234-59-52.122-78.74-83.688l-24.11-24.391c21.2 8.987 44.046 14.352 62.179 30.638z" class="cls-2" transform="translate(-259.912 -237.993)"/>
            <path id="path1999" d="M611.239 264.33c-21.37 18.734-36.191 42.426-52.044 64.52-14.211 17.6-32.389 29.2-48.5 44.328 8.7-18.029 9.014-39.564 21.349-56.125 17.552-30.622 50.1-41.4 79.193-52.723z" class="cls-2" transform="translate(-417.219 -236.784)"/>
            <path id="path2001" d="M505.3 317.754c10.393-12.92 23.57-21.9 38.4-25.691-28.792 19.778-26.918 55.223-36.046 84.688-2.91 10.9-7.964 20.934-10.482 32.1l.733.583c4.791-12.627 13.211-24.557 23.72-34.859 20.449-18.877 50.7-30.641 60.72-58.565-.458 38.8-32.829 69.31-63.8 91.119-12.773 11.205-25.09 23.976-32.124 38.381-.69-9.79 1.447-19.62.751-30.107-3.368-33.874-5.816-72.537 18.133-97.652z" class="cls-2" transform="translate(-428.145 -224.971)"/>
            <path id="path2003" d="M458.453 417.8c-.867-34.326 13.381-62.347 33.458-87.923.583-.291 1-.874 1.749-.734-22.1 33.583-3.818 75.885-4.825 114.071l-2.915 39.1c.433.283.433 1.458 1.459 1.007 1.307-4.357 1.59-9.014 2.463-13.5 5.206-31.536 32.593-53.913 56.515-75.707 5.108-5.7 9.624-11.488 12.249-18.177-1.953 15.7-6.875 31.54-13.39 46.061-18.618 36.309-53.012 66.1-59.3 107.67-3.049-39.836-30.171-69.619-27.467-111.868z" class="cls-2" transform="translate(-439.553 -209.187)"/>
            <path id="path2005" d="M447.307 435.011c2.475-10.736 4.366-21.846 9.039-31.7-8.853 45.38 21.669 78.077 31.681 117.412 4.19 14.712 5.215 30.513 11.205 44.318.558.3 1.043-.281 1.388-.724-14.907-41.785 6.612-80.613 28.236-113.329 5.258-8.865 8.288-18.736 10.9-28.925 2.3 18.911-2.484 40.689-5.231 60.323-5.258 24.983-13.106 48.676-19.938 72.917-4.5 15.148-3.314 32.237-1 48.109l-2.166-1.731c-15.853-29.234-47.244-52.035-56.567-83.973-7.671-25.462-12.771-54.957-7.547-82.7z" class="cls-2" transform="translate(-445.127 -177.585)"/>
            <path id="path2007" d="M445.891 489.9c3.491 48.1 55.215 73.516 79.191 113.336 5.673 8.148 10.6 17.162 18.176 23.983-1.184-5.124-5.966-9.436-7.721-14.685-8.388-16.7-11.446-36.6-9.429-56.789 2.323-24.568 12.628-47.367 8.694-73.207 21.068 45.425 14.669 102.124 26.448 151.346 3.085 10.765 9.316 20.378 13.4 30.668-43.286-29.481-102.31-57.531-121.513-111.562-8.093-18.63-9-41.694-7.245-63.088z" class="cls-2" transform="translate(-445.142 -143.84)"/>
            <path id="path2009" d="M463.8 575.756c24.135 54.6 84.581 59.121 125.108 92.368 7.458 6.61 15.272 12.231 23.692 16.153l.433-.44c-9.3-8.413-20.068-17.995-26.582-28.9-23.72-32.981-15.377-79.182-33.149-114.654 16.148 19.317 30.833 39.4 40.582 61.31 14.5 35.773 20.043 76.179 53.6 103.22-36.313-11.968-78.855-8.624-110.907-30.984-35-21.508-66.228-57.989-72.776-98.075z" class="cls-2" transform="translate(-437.195 -119.242)"/>
            <path id="path2011" d="M507.3 651.785C546 695.8 609.229 681.11 660.776 692.629c7.281.994 13.946 3.91 21.662 2.727-6.145-3.888-14.671-3.466-21.379-7-40.405-14.2-46.333-57.938-68.267-87.435 28.023 18.609 51.581 43.708 77.433 68.028 18.582 16.277 40.95 23.79 64.517 28.581-5.664 2.069-13.088 1.5-19.167 3.094-42.34 10.411-89.38 27.428-134.282 12.194-29.191-9.191-59.307-32.273-73.994-61.032z" class="cls-2" transform="translate(-418.666 -93.415)"/>
            <path id="path2013" d="M1012.2 725.956c-43.606 16.273-89.115-.744-123.174-26.571-13.789-8.765-25.945-21.385-43.78-20.27-6.469-.122-12.707.2-18.206 1.783 33.088 15.4 63.823 36.624 91.925 63.771-4.736 5.408-10.87 10.466-16.647 15.13-27.081-29.179-57.073-57.266-90.653-73.67-6.576.853-12.832 4.809-18.761 7.994-27.338 17.285-54.369 39.518-74.693 66.738l-17.464-14.422q41.809-42.293 92.431-65.822c-33.142-10.5-54.775 17.266-79.933 31.389-29.316 20.469-71.477 30.082-106.905 15.96-19.054-7.227-37.513-17.87-51.309-35.168 27.882 19.208 69.408 21.222 101.117 8.746 42.549-18.455 86.763-41.85 138.056-30.663 8 .141 15.783 8.112 23.345 1.325 38.124-9.9 81.285-3.094 114.107 14.331l33.83 13.56c31.443 11.627 72.1 8.411 99.048-10.747-13.857 17.248-32.786 29.606-52.334 36.606z" class="cls-2" transform="translate(-398.337 -64.998)"/>
            <path id="path2015" d="M954.453 710.487c-48.959 18.487-98.213-4.205-145.124-11.786l-9.032-1.148v-.286c22.431-5.09 44.2-11.768 62.059-27.886 26.3-25.277 49.7-51.295 78.9-71.212-21.656 27.766-23.951 67.288-59.725 85.14-8.853 5.793-20.027 6.818-29.164 11.205 13.029.281 24.958-4.387 37.86-5.693 47.97-7.531 102.847.2 136.5-40.67-12.494 28.475-43.783 52.32-72.273 62.337z" class="cls-2" transform="translate(-293.865 -94.587)"/>
            <path id="path2017" d="M987.968 623.568c-19.335 12.655-38.933 24.391-57.513 38.779v-1.767c28.458-47.3 14.547-112.27 32.081-164.321l6.54-17.437c-3.659 32.425 10.425 59.892 9.436 92.429-.989 19.655-7.4 37.082-17.725 52.777h1.749c13.943-18.312 24.831-37.788 41.127-55.231 25.294-24.391 51.01-49.4 54.331-83.249 8.59 56.506-23.116 106.03-70.025 138.02z" class="cls-2" transform="translate(-238.425 -145.422)"/>
            <path id="polygon2021" d="M729.936 493.972h8.773V714.22h-8.773z" class="cls-3" transform="translate(-323.835 -138.969)"/>
            <path id="polygon2023" d="M743.1 478.8l6.2 6.205-155.867 155.624-6.2-6.21z" class="cls-3" transform="translate(-384.618 -145.43)"/>
            <path id="polygon2025" d="M751.886 446.7l-.014 8.772-220.248-.263.009-8.773z" class="cls-3" transform="translate(-408.305 -159.215)"/>
            <path id="polygon2027" d="M749.124 463.364l-6.206 6.2L587.2 313.8l6.2-6.2z" class="cls-3" transform="translate(-384.633 -218.353)"/>
            <path id="polygon2029" d="M738.641 469.944l-8.773-.007.2-220.253 8.773.009z" class="cls-3" transform="translate(-323.864 -243.022)"/>
            <path id="polygon2031" d="M768.785 467.2l-6.2-6.211 155.95-155.531 6.2 6.21z" class="cls-3" transform="translate(-309.927 -219.267)"/>
            <path id="polygon2033" d="M778.864 455.963l-.009-8.772 220.246-.277.016 8.771z" class="cls-3" transform="translate(-302.998 -159.013)"/>
            <path id="polygon2035" d="M761.028 486.553l6.2-6.211L923.1 635.952l-6.2 6.209z" class="cls-3" transform="translate(-310.592 -144.774)"/>
            <path id="path2037" d="M885.243 299.582c121.309 45.345 182.959 180.593 137.614 301.9s-180.595 182.95-301.893 137.604S538.015 558.5 583.352 437.193s180.593-182.951 301.891-137.61zm-3.55 9.511c116.051 43.381 175.032 172.777 131.655 288.829S840.565 772.957 724.515 729.575 549.486 556.8 592.863 440.747s172.779-175.033 288.83-131.654z" class="cls-3" transform="translate(-392.617 -228.114)"/>
            <path id="path2039" d="M850.365 333.874C943.881 368.829 991.4 473.088 956.449 566.6S817.228 707.631 723.724 672.679s-141.032-139.216-106.08-232.726S756.86 298.921 850.365 333.874zm-3.565 9.566c88.221 32.979 133.065 131.36 100.086 219.586S815.523 696.1 727.3 663.115 594.224 531.758 627.207 443.529 758.565 310.456 846.8 343.44z" class="cls-3" transform="translate(-376.557 -212.054)"/>
            <path id="path2041" d="M816.533 367.133a128.713 128.713 0 1 1-165.628 75.5 128.764 128.764 0 0 1 165.628-75.5zm-3.27 8.753A119.369 119.369 0 1 1 659.654 445.9a119.413 119.413 0 0 1 153.609-70.016z" class="cls-3" transform="translate(-360.981 -196.477)"/>
            <path id="path2043" d="M778.478 404.545a70.067 70.067 0 1 1-90.165 41.1 70.093 70.093 0 0 1 90.165-41.1zm-3.542 9.469a59.958 59.958 0 1 1-77.156 35.169 59.984 59.984 0 0 1 77.156-35.169z" class="cls-3" transform="translate(-343.459 -178.955)"/>
            <path id="path2045" d="M956.842 281.694c141.885 78.081 195.739 255.486 120.2 395.987S825.048 868.853 683.164 790.774s-195.738-255.486-120.2-395.99 251.992-191.169 393.877-113.09zm-4.965 9.245c136.733 75.244 188.628 246.2 115.831 381.61S824.863 856.777 688.135 781.531 499.5 535.323 572.3 399.92s242.842-184.228 379.577-108.981z" class="cls-3" transform="translate(-409.516 -245.012)"/>
            <path id="path2047" d="M985.839 656.454c.166 1.507-.352 5.217.351 6.069.728 1.156 3.446.91 4.623.5 3.217-1.209 6.417-5.459 7.9-8.645a8.579 8.579 0 0 0 1.52-5.63l-2.25-6.816c-.563-2.391-1.318-6.593-3.868-7.585.238-.633 1.046-1.622.95-2.528-.59-2.694-5.09-1.986-6.7-.008-.81.989-.581 3.1-.755 4.337-.045 2.449-.73 7.392-1.706 9.616s-3.708 5.213-3.745 7.66c.193 1.81 2.137 2.857 3.675 3.028zm-149.77-18.911l.8 1.758c.035.3.4.879.7.853 2.039 1.955 4.9-2.576 1.486-3.182-.307.026-.94-.225-1.212.105a3.848 3.848 0 0 0-1.776.466zm2.259-4.474c-1.38 1.341-1.882 2.3.36 3.322l-.36-3.322zm-36.372-26.641c-2.215 2.026-2.047.8-3.181 1.507-.844.681-.141 1.533-.914 2.825-.238.633-1.116 1.016-1.046 1.622-.2.932.765 1.455 1.7 1.675 1.24.193 4.861-.128 5.994-.839 1.117-1.016.677-2.2 1.187-3.161.272-.329.809-.988 1.081-1.318.131-1.538-3.112-3.384-4.826-2.311zm87.336-9.361l.324 3.019-.352 2.475c3.287-.6 5.31-1.7 8.227-2.875.871-.382 2.611-1.151 3.287-.6.969.527.458 1.485.22 2.117a23.9 23.9 0 0 1-3.164 4.558c-2.452 2.659-6.072 2.984-9.132 5.7-1.644 1.674-2.082 3.238-3.736 4.913a22.239 22.239 0 0 1-3.666 2.768c-.808.989-.132 1.538-1.844 2.606l.975-2.22c-.932-.225-2.146-.114-2.849-.971a4.263 4.263 0 0 1-.29-2.716c.415-1.868.792-6.786 1.874-8.1a25.025 25.025 0 0 1 3.489-1.533l-.4 1.868a9.17 9.17 0 0 0 2.978-.572c1.479-.439 2.963-3.626 3.736-4.913l-4.094 1.587c.712-1.894 2.733-5.735 4.421-7.107zm-80.963 9.092c-.615 2.8 1.1 1.732 2.136 2.862a3.315 3.315 0 0 1 .862 2.365l-2.382.518-1.045 1.616-1.345 1.648 4.087 1.16c-2.047.792-3.287.6-4.6 2.55l5.124-.462c3.349 0 5.864.694 9.019-1.117l-.668-.549.914-2.83-2.276-1.319-.8-1.758-3.832-4.54-1.274-.5c1.081-1.318 3.261-3.652.149-4.285l-1.538-.167 1.345-1.648c-1.846-.136-3.384-.3-4.765 1.041-1.617 1.974-1.661 4.418.888 5.41zm-1.784-39.2l-.07 2.14-.7-.852.087 3.652c.536 2.091 2.883 1.27 3.42.61.571-.355.738-1.595.677-2.2a2.348 2.348 0 0 0-.764-1.455 2.772 2.772 0 0 0-1.547-.171l-.194-1.81-.905.083zm-248.613 19.252c-.119 4.588 1.089 4.478 2.113 8.354.532 2.088-.307 2.773 1.354 6.9.8 1.762 1.292 3.546 3.2 4.289a47.124 47.124 0 0 0-2.9-12.859c-1.231-2.941-2.171-3.16-3.164-6.738l-.6.058zM974.711 536a2.859 2.859 0 0 0-1.785 3.207 2.042 2.042 0 0 0 2.672 2.2c2.048-.792 2.4-6.012-.887-5.41zm-285.179-.66c-.743 1.6-.884 3.134.755 4.207-.162-1.507.277-3.077-.755-4.207zm89.1 1.469l1.006.826c2.215-2.03 2.69-3.3 4.307-5.269 1.344-1.648 2.25-1.727 3.089-2.412.535-.66.47-1.266.672-2.2.475-1.266 1.35-1.648 1.125-3.762.107-1.841-1.093-4.479-3.172-3.988l-.466-1.483a6.8 6.8 0 0 0-3.221 1.2c-.839.687-.409 1.869-1.516 2.884-1.345 1.645-3.692 2.466-4.263 2.822-.874.387-.474 1.266-1.889 2.308-1.978 1.4-3.284.6-4.457 1.01-1.477.435-3.665 2.768-4.772 3.784a13.357 13.357 0 0 0-2.764 5.437c-.237.628-.743 1.59-.378 2.171s1.27.492 1.845.136c1.174-.408 3.757-1.859 4.7-1.639.9-.084 1.269.5 1.906.743a19.561 19.561 0 0 1 2.175.413 10.771 10.771 0 0 1 2 1.653c1.6.769 3.222-1.2 3.7-2.466a4.362 4.362 0 0 0 .374-2.171zm1.753-23.35l.035.3-.339-.274.3-.028zm2.672 2.2c.8 1.76 3.744 3.63 5.415 5.008a2.313 2.313 0 0 0 1.076-1.317c.743-1.594.417-4.617-1.191-5.388a3.526 3.526 0 0 0-3.015.271 3.317 3.317 0 0 0-.764-1.457c-2.374-2.227-5.344 4.142-1.521 2.883zm-12.617-4.053c2.035 1.953 2.07 2.254 4.786 2.01-.414 1.868-2.831 4.833-4.809 3.485-1.3-.8-1.432-2.009-2.065-2.257-.971-.523-1.046 1.62-1.582 2.277-1.284 2.251-3.427 2.14-3.638 5.82l1.142-.717c1.16 2.339 3.314-.294 4.76-1.034a6.462 6.462 0 0 0-1.042 1.62 1.233 1.233 0 0 0 1.671 1.376c.87-.383 1.916-2 2.751-2.69a6.436 6.436 0 0 1 2.017-1.1c.839-.683 1.947-1.7 2.791-2.384 2.522-2.056 2.65-.848 3.533-3.98-.07-.6.2-.933.136-1.538-1.2-2.639-5.523-.42-5.862-.692l-1.877-.445c-.633-.248-1.81.163-2.711.245zm13.94-.64l-1.508.134.4.879c1.78-.464 2.984-.574 3.059-2.716-1.508.136-1.811.162-1.952 1.7zm-95.021 5.776l-1.4 6.841.625 2.993 1.257 5.989a26.193 26.193 0 0 0 2.3-6.917l.344-2.475c.105-1.838.343-2.469-.457-4.229l-1.952 1.7-.119-3.955-.6.052zm98.145-7.89c-.193-1.813.141-1.537 1.678-1.371l-.021-3.05a11.451 11.451 0 0 0-2.923 1.177c-1.345 1.646-1.177 3.16 1.266 3.244zm-8.966-4.076l1.033 1.127c2.079-.492 2.747.057 4.623.5l-.734-1.156.773-1.29c1.811-.16 1.952-1.7 1.188-3.157-.335-.276-.972-.523-1.305-.8-3.248-1.842-3.556.931-4.329 2.221l-1.249 2.554zm7.81-1.007a3.825 3.825 0 0 0 1.78-.463c1.108-1.016.484-4.013-.492-4.534-.936-.221-1.44.738-1.375 1.343l-.206.937.162 1.51.132 1.208zm-96.972 7.481a9.839 9.839 0 0 0 1.591-5.027c-2.013 1.1-1.819 2.91-1.591 5.027zm10.688-19.573a16.327 16.327 0 0 1-1 7.718c-1.214 2.857-4.141 6.781-4.755 9.58l-.7-.853c-1.314 1.95-1.464 6.237-.628 8.3 1.643-1.673 2.021-3.844 3.032-5.765 1.992-4.144 4.65-7.738 5.67-12.409.176-1.236.422-4.616-.316-5.769-.365-.578-.668-.55-1.3-.8zm274.7 8c1.583-2.28 2.005-6.891 2.611-9.7 1.434-6.535 4.457-9.552 3.577-17.713-.193-1.812-.887-5.412-3.058-5.83-3.384-.305-2 4.147-2.2 5.08a4.334 4.334 0 0 1-.379 2.172c-1.484 3.184-.789 6.783-.737 10.135l-.642 11.043.826 4.809zm-48.853-52.07c.061.6.395.88.764 1.456.333.277.669.551 1 .827 1.942 1.046 2.953-.874 2.214-2.031-.358-.577-1.6-.771-2.2-.716a3.813 3.813 0 0 0-1.776.464zm45.126-5.27a34.459 34.459 0 0 0 2.55 9.537l2.663 4.948 3.146 9.483c1.617-1.976.758-4.34.229-6.428-1.361-4.15-3.323-8.246-4.956-12.065-1.134-2.035-1.96-4.1-3.632-5.475zm-16.674-4.911l-.245 3.378-4.124-1.462a10.744 10.744 0 0 0 2.595 7.092l3.312 2.45a88.692 88.692 0 0 1 7.78 7.236 22.732 22.732 0 0 1 2.935 4.619c.669.549 1.336 1.1 2.207.717.572-.356.712-1.894.948-2.527l1.012-1.921c.44-1.564-.721-3.9-1.486-5.359l-2-4.4c-.835-2.062-1.336-3.848-2.733-5.553-2.373-2.229-4.183-2.066-6.689-2.758l-3.516-1.514zm-83.926 4.174c-.177 1.237-.281 3.079-1.758 3.516a4.346 4.346 0 0 1-1.874-.443l-1.15 3.461a12.378 12.378 0 0 0-1.354 4.395c-.141 1.536 1.969 1.346 3.042.031 1.116-1.015 1.257-2.554 2.03-3.844 1.248-2.553 3.559-3.678 3.84-6.753l-2.776-.363zm93.5-11.441c.9 2.668 1.529 2.916 3 5.225.764 1.457.563 2.391 2.336 1.927-1.062-1.43-4.024-6.352-5.335-7.152zM837.44 446.393c-3.384-.305-1.151 3.461-1.591 5.025-.738 1.594-4.131 4.034-5.774 2.96a4.175 4.175 0 0 1-2.716.244c-.932-.222-1.6-.771-2.505-.69l-4.808 3.483a6.231 6.231 0 0 1-3.19 1.505c-.9.082-2.109.188-2.646.851-.844.683-.044 2.443.361 3.322L816 465.1c-2.953.874-2.725 2.989-2.435 5.712a72.978 72.978 0 0 0 1.178 8.132c.465 1.486 2.443 2.833 4.008 3.3a6.984 6.984 0 0 0 3.418.611l.211-3.683.906-.079.931 2.969c.3-.029.905-.082 1.2-.11l3.753.886.668.549c.4.879-.343 2.472-.246 3.38.527 2.087 2.707 2.5 4.518 2.34-.044 2.444.193 1.813.052 3.351.167 1.512-.738 1.593 1.125 4.782.37.576 1.134 2.035 2.039 1.953s2.787-2.386 4.8-3.482c.465 1.482.5 1.786 1.8 2.586l-.439 1.564 3.427-2.138c-1.02 4.668-2.961 3.621-5.08 6.558-.747 1.595-.281 3.078-.721 4.643l.334.274 1.142-.712.871-.382c2.68-.548.6 2.691.659 3.3.1.909.738 1.154 1.371 1.4l-1.415 1.04.835 2.063-5.432.488c-2.681.546-4.905 2.576-7.155 4.3l.07.6.932.221-5.2 2.6c1.573.466 3.621-.326 5.133-.462 1.477-.439 1.2-.105 2.988-.575l.966.527-.176 1.235 6.636 2.159c1.573.47 2.716-.243 3.692.281 1.3.8.861 2.364 3.041 2.776 2.505.691 4.492-.707 6.567-1.2l-2.453 2.663 1.134 2.035 2.953-.874c-2.189 2.33-2.083.492-6.3.87.968.523 3.841 1.789 4.483 2.039 1.573.471 2.408-.22 4.623.5 1.872.439 4.149 1.762 4.755-1.042a6.888 6.888 0 0 0 1.072 1.434 8.006 8.006 0 0 0 2.516.69c1.239.194 4.174 2.065 4.042 3.6-.272.329-.545.659-.808.989a11.14 11.14 0 0 0-1.5-2.611c-1.731-1.983-4.387-1.134-6.566-1.552l-4.387-1.13-3.383-.307c-1.837-.141-2.875-1.266-4.685-1.1-.607.053-1.477.436-1.406 1.041s.729 1.157 1.064 1.429c1.942 1.046 1.238.193 4.184 2.065 1.634 1.073 2.206.717 3.779 1.186l1.608.773c1.24.194 1.477-.439 2.716-.246a7.226 7.226 0 0 1 2.478.391l-5.238 2.3-4.017-.554c.8 1.758 1.134 2.035-.211 3.678l-.738-1.151c-.809.984-.739 1.591-1.547 2.579l-1.345 1.645c-.237.633-1.046 1.622-1.652 1.674-.905.084-1.934-1.046-2.611-1.595a3.31 3.31 0 0 0-3.383-.308c1.107 1.732 1.678 1.376 3.278 2.145a42.348 42.348 0 0 1 5.688 4.681c-.308.026-.607.053-.844.686-.536.659.052 3.353.755 4.2a2.8 2.8 0 0 0 2.206.721l-3.594 3.375c1.573.465 2.145.11 3.481 1.212l-3.016.268-3.981-3-4.149-1.767c1.547.167 3.99.255 5.431-.488 2.585-1.451 1.354-4.39-.65-6.043-1.3-.8-2.207-.717-3.745-.884-1.24-.194-3.146-.94-4.36-.831l-3.287.6.211-.936c-.941-.22-1.275-.5-2.119.189-1-.827-1.029-1.125-2.268-1.319l.159 1.507-1.371-1.4-.132 1.538c-.738-1.156-.773-1.454-2.039-1.951l1.02 3.872-.5.962c-1.679 1.371-1.661 4.422-1.46 6.237.387 3.626-.422 4.615-.729 7.388-.079 2.14.624 2.993.044 6.1a28.833 28.833 0 0 1-1.828 5.657l-1.35 1.656-1.01 1.92c-.51.963-1.345 1.648-1.854 2.611a2.2 2.2 0 0 0 .563 2.391c.5 1.784-.773 1.287 1.327 3.849l-1.073 1.315 1.2-.11c-.677 2.2.694 3.6 2.768 3.112a6.481 6.481 0 0 0 3.534-3.982l.607-.053 4.06 6.654c.7.853.87 2.365 2.11 2.557s1.706-1.067 2.215-2.03c.536-.659 1.108-1.015 1.643-1.674.747-1.591-.72-3.9-.58-5.442.167-1.234 1.01-1.92 1.151-3.458-.228-2.114-1.8-2.585-2.839-3.714s-1.16-2.333-1.327-3.845c-.361-3.328 1.353-4.395 1.669-7.168.105-1.842-.931-2.967-1.064-4.179-.1-.906.105-1.837 1.012-1.921 2.082-.492 2.337 1.929 2.5 3.438l-.281 3.076c-.167 1.24-.676 2.2-.509 3.709.431 1.183 1.134 2.036 1.529 2.915.7.852.8 1.763 1.469 2.311a3.264 3.264 0 0 0 1.573.466 4.325 4.325 0 0 0 1.872.444c1.477-.44 3-3.323 4.4-4.36.844-.69 2.083-.492 2.988-.576a26.813 26.813 0 0 1-2.391 3.266c-1.142.711-3.226 1.2-3.331 3.045-.642 2.5 2.672 2.2 2.6 4.341-.141 1.539-2.478-.387-3.19 1.507-1.011 1.921.325 3.025.791 4.509a9.345 9.345 0 0 1-.615 2.8c-1.275 2.25-2.347.821-4.061 1.89-1.442.743-3.024 3.019-4.5 3.459-1.168.408-2.18-.419-3.085-.339-1.2.11-2.215 2.035-4.219.382-2.039-1.955.281-3.076-.22-4.864l-1.23-2.941c-1.714 1.068-3.392 2.444-2.83 4.835.835 2.056 2.839 3.709 1.793 5.326-.844.686-2.655.848-4.061 1.891-1.714 1.072-3.5 4.28-4.069 4.641-.844.685-1.749.764-2.584 1.449l-3.033 3.019c-.264.33-.264.33-.536.66l-3.779-1.188.228 2.114a7.569 7.569 0 0 1-2.751-.057c-.931-.225-2.777-.361-3.252.9-.51.963 2 1.652 2.646 1.9 3.84 1.793 4.6 6 2.953 7.674-1.108 1.01-3.016.268-4.254.075-2.787-.361-7.173-1.495-9.915-1.552-3.623.321-2.461 2.658-3.164 4.554-.177 1.238-1.319 1.951-1.521 2.883a1.087 1.087 0 0 0-.2.936c-.034-.3.993 3.573.958 3.27.431 1.182 2.55.994 3.789 1.186 1.564.466 1.969 1.35 3.269 2.149 1.275.492 1.846.136 3.024-.272 2.708-.246 5.292 1.05 9.318-1.143a3.775 3.775 0 0 0 1.951-1.7c.809-.984.4-1.868 1.512-2.883 1.38-1.345 4.062-1.891 5.476-2.932 1.108-1.015.309-2.773 2.356-3.568 1.477-.435 3.112.637 5.161-.159 1.775-.466 3.692-2.466 5.476-2.931 1.81-.163 2.935 1.871 5.45 2.562l9.976 2.153a2.339 2.339 0 0 1 1.275.5c2.672 2.2-1.178 3.155-2.655 3.6a8.441 8.441 0 0 1-2.689.544c.342.273.369.576.7.853 1.275.5 4.351.831 5.467-.185a2.551 2.551 0 0 0 .379-2.171 2.941 2.941 0 0 0 2.215-2.03c-.1-.905-.5-1.784.343-2.47.536-.659 1.74-.769 2.654-.853-1.406-1.7-2.548-.989-4.395-1.13-.931-.219-1.3-.8-2.241-1.018-.905.083-1.74.769-3.015.272-.94-.225-1.943-1.05-2.874-1.27-.977-.523-3.455-.91-3.314-2.449.237-.633.509-.962 1.107-1.015a1.121 1.121 0 0 1 .879-.387l.431 1.187c3.218-1.2 2.171.413 4.957.773 2.505.689 5.459-.185 8.007.809 1.574.465 1.064 1.428 2.435 2.83 1.671 1.38 4.052.857 6.161.668-.263.33-.569.361-.535.659-.51.963.159 1.512.8 1.758 2.266 1.324 5.634-1.419 2.751-2.685l4.632-2.246c-2.241-1.02-3.35 0-6.295-1.877a3.6 3.6 0 0 0 2.919-1.178l.175-1.239 4.9-2.576c-1.554 2.58.2 1.815.782 4.509 1.513-.136 3.384.3 4.9.171a28.427 28.427 0 0 0 5.238-2.3c.835-.685 1.046-1.617 1.88-2.3l3.491-1.534a20.223 20.223 0 0 0 3.568-3.678c.535-.659 1.073-1.318 2.014-1.094 1.266.5 1.59 3.521 1.722 4.73a10.742 10.742 0 0 1 .932 2.966c-.186 3.982-4.369 4.664-6.891 6.72-1.678 1.371-2.962 3.621-4.711 4.39-2.25 1.727-8.694 4.136-11.648 5.011l-6.267 1.173a7.968 7.968 0 0 0-3.593 3.375c-.476 1.266.288 2.721-1.152 3.459s-7.444 1.582-8.984 1.42c-2.478-.391-1.643-1.077-5.265-.752-3.314.3-6.9.928-10.319.316a9.272 9.272 0 0 0 1.819-2.909c.237-.633-.1-.91-.167-1.512a1.836 1.836 0 0 0-.431-1.182c-.7-.853-3.112-.637-4.017-.555-2.083.492-1.714 1.068-5.028 1.367l-11.136 1.305c-5.424.484-9.757 2.707-11.867 2.9a23.671 23.671 0 0 1-6.469-.642c-1.274-.5-2.61-1.6-4.052-.856-1.477.439-1.951 1.7-3.691 2.465s-5.063 1.068-7.05 2.466-.945 2.527-3.261 3.649c-1.174.413-5.125.461-6.636.6-3.349 0-5.029 1.368-7.95 2.545l-3.222 1.2c-1.173.408-3.556.928-4.06 1.889s.228 2.114.326 3.024a8.779 8.779 0 0 1-.313 2.773c-1.578 2.277-5.642 4.167-4.979 7.467.527 2.088 1.767 2.281 4.1 4.205 3.073 3.081 5.37 7.454 8.68 9.9 4.277 2.975 10.465 6.693 15.756 7.743l9.186.4c4.922.471 8.7 1.662 13.871 1.5l11.356-1.934c2.417-.216 6-.844 8.516-.154s3.006 2.478 7.533 2.07l6.3-.87c1.477-.436 2.654-.848 4.254-.075 3.885 2.093-2.7 6.038.307 8.518 1.671 1.376 7.2 1.793 9.414 2.509 1.539.168 6.39 2.782 7.429 3.912.667.549.728 1.156 1.432 2.009s2.277 1.319 2.373 2.229-1.853 2.606-2.391 3.265c-1.651 1.674-4.851 5.928-3.049 8.513.7.852 2.611 1.595 3.586 2.117l8.8 2.566c3.813 1.49 4.14 4.514 6.451 6.136 1.635 1.076 4.351.83 6.5.945l9.071 2.237c3.155.941 1.838 2.888 4.314 3.274 5.231.449 13.258-4.241 17.52-7.062l8.658-4.439a105.638 105.638 0 0 0 9.7-6.06 44.076 44.076 0 0 0 13.694-17.1c1.012-1.92 3.877-6.452 4.053-7.686.4-1.868-1.54-2.915-.792-4.5.975-2.229 4.913-5.327 5.855-7.849a3.236 3.236 0 0 0-.758-4.205c-1.266-.5-2.109.188-4.623-.5 1.9-5.05 5.335-9.937 8.193-14.468 1.318-1.946 3.672-5.515 3.718-7.958.009-2.747-2.445-2.835-3.473-3.96-1-.826-.774-1.459-1.406-1.709-1.266-.492-3.287.6-4.525.408a4.612 4.612 0 0 1-2.207-.716c-.975-.523-2.146-.115-3.051-.035-1.361-4.149 1.477-11.726 2.867-15.817 2.706-8.786 6.328-17.659 5.017-27l-1.388-7.2c-.395-.884-1.125-2.035-2.3-1.626-1.776.466-3.341 5.793-4.078 7.383L951.661 622c-1.046 1.617-1.724 3.815-3.1 5.159a20.391 20.391 0 0 1-4.3 2.519c-.467-1.481-1.336-1.1-2.513-.686l-5.469 2.932c-1.141.712-3.391 2.44-4.9 2.576-1.2.11-1.907-.743-3.681-.281-1.2.11-3.253.905-4.194.68-1.238-.193-2.574-1.292-3.815-1.485a7.38 7.38 0 0 0-3.586.624c-3.017.272-7.737-1.139-10.856-1.771.572-.356 1.177-.408 1.116-1.015.44-1.564-1.969-4.1.984-4.971.3-.026.905-.083 1.2-.109l5.158-.159 2.992-.572c1.538.168 1.942 1.047 4.051.857l7.411-1.885c3.024-.273 4.244 2.672 7.374.558 2.55-1.753 4.949-7.77 5.864-10.6l2.636-6.645 1.021-4.667c1.15-3.464 2.2-5.081 1.774-9.01l-.615-5.745c-.263-2.417-.755-4.205-3.244-1.845-1.923 2-2.6 4.2-5.677 3.867-.817 3.736-.3 8.57-4.026 10.737-1.415 1.041-2.987.57-4.455 1.011-.88.382-2.023 1.1-2.656.848a1.465 1.465 0 0 1-1.669-1.376c.168-1.235 2.216-2.03 3.094-2.413 2.919-1.177 4.4-1.617 6.549-4.25 1.309-1.951 1.45-3.49 2.5-5.107 1.073-1.318 2.014-1.1 3.087-2.412.808-.989 2.293-4.175 3.067-5.463l3.691-11.013c1.785-3.213 4.775-3.785 5.557-7.823l.465 1.486c3.191-1.507 3.164-4.557 2.541-7.55 1.81-.163 5.494.114 6.97-.321l6.846-4.276c1.715-1.073 4.536-3.156 4.94-5.024.474-1.261-1.486-5.357-2.189-6.209a2.382 2.382 0 0 0-1.336-1.1c-1.574-.469-3.647.023-4.781-2.013-1.406-1.7-2.962-7.668-4.121-10.007-2.5-6.183-2.663-4.948-3.834-7.285-.764-1.456-.624-3-.792-4.507a27.482 27.482 0 0 1-1.193-2.639c-.134-1.208.71-1.894 1.52-2.881 1.275-2.252 1.08-4.065 2.461-5.41 1.107-1.015 2.082-.49 2.584-1.452 1.855-2.606-2.627-4.646-1.116-7.529.773-1.291 2.962-3.621 4.473-3.759 1.17-.408 2.146.112 3.314-.3 1.143-.715 1.223-2.857 1.7-4.12 1.177-3.157 3.024-3.017 3.473-7.328.141-1.539.211-3.684-.519-4.837-1.406-1.707-3.384-.307-3.858.956-1.046 1.617-.817 3.736-.624 5.548a13.108 13.108 0 0 1-1.495 5.93c-1.275 2.252-3.886.656-4.623-.5-.361-.578-.123-1.209-.193-1.816.043-2.445-.66-3.3-.045-6.1.168-1.237 1.318-4.7.959-5.274-.107-.907-2.876-4.013-3.57-4.868-1.37-1.4-3.84-4.538-6.124-3.111-2.014 1.094-1.592 5.025-1.969 7.194-.2.933-.617 2.8-1.522 2.883-.563.356-1.572-.471-2.232-1.02-1.706-1.679-2.742-2.806-3.033-5.527.932.22 3.446.912 3.62-.325-.132-1.208-1.563-3.217-2.776-3.107-1.239-.194-1.406 1.041-3.051-.031-1.336-1.1-4.3-6.024-5.7-7.729a20.7 20.7 0 0 0-6.986-5.476c-1.565-.467-6.655-2.454-8.068-1.411-.572.356-.476 1.261-.712 1.892a1.611 1.611 0 0 0-1.266-.5c-2.18-.414-2.822 2.084-2.963 3.624.061.6.193 1.815-.678 2.2s-1.547-.167-2.216-.718a11.133 11.133 0 0 0-3.876-2.093 17.52 17.52 0 0 0 1.592 3.518c1.774 2.283 2.978 2.173 2.7 5.252-2.541-.994-5.414-2.259-7.154-4.242l2.348-.821-.063-.6c-.966-.525-4.28-2.974-4.412-4.182-.1-.907 1.107-1.017 1.012-1.924.211-.933-.764-1.456-.29-2.72.807-.989 2.556-1.756 2.425-2.965a2.084 2.084 0 0 0-1.37-1.4c-1.3-.8-3.613-2.421-4.993-1.078-1.107 1.015-.272 3.076-.887 5.877-.941-.219-2.55-.992-3.482-1.212-1.239-.194-2.681.544-4.289-.225-2.214-.718-3.005-2.478-4.913-3.223-3.516-1.514-6.469-.637-9.756-.037a16.607 16.607 0 0 0-5.362 1.09 6.026 6.026 0 0 0-2.155 2.635c-1.343 1.648-4 2.494-3.734 4.911.526 2.09 2.373 2.231 3.039 2.778l1.926 3.8c-2.075.49-3.051-.031-4.852.13l-7.146 1.555c-3.657.025-4.791-2.01-7.032-3.029-1.266-.5-2.171-.416-3.146-.939-1-.823-1.1-1.731-1.434-2.009-.7-.849-3.779-1.186-4.684-1.1a1.659 1.659 0 0 1-.44 1.564c-.509.963-3.094 2.416-4.3 2.523a2.671 2.671 0 0 1-2.145-.112l.168-1.237c.141-1.536-.766-1.455-1.934-1.046-1.785.465-2.857 1.782-4.272 2.824a18.234 18.234 0 0 1 1.793-3.211 17.479 17.479 0 0 1 4.026-2.193l4.562-2.85c1.142-.712 2.892-1.481 3.727-2.166 2.522-2.057 3.05-8.511 2.391-11.809-4.667 1.942-3.429 2.135-6.584 3.946a14.042 14.042 0 0 1-2.619 1.15 4.107 4.107 0 0 0-1.249 2.553zm32.013-11.11l2.971 2.175 2.266 4.067c1.742-.767 1.978-1.4 3.157-1.808.569-.356 4.323.527 3.452-1.835q-.5-.415-1-.826l-.2.933a14.937 14.937 0 0 0-3.613-2.424c-1.275-.494-5.53-.417-7.032-.283zm10.214 1.525c4.219-.378 3.489-1.534 5.907-1.75 1.168-.413 3.039.032 4.28.225l-.168 1.235c2.541.994 2.382-.518 4.255-.077 1.908.745 3.076 3.084 6.222 4.019 1.266.5 1.908.745 3.051.033.728 1.156 1.036 1.13 2.241 1.02.141-1.538 1.01-1.922.606-2.8s-3.577-2.121-3.849.957c-1.073-1.432-.5-1.789-.9-2.665-1.073-1.432-3.216-1.545-4.7-1.107-.624-3-.227-2.116-4.4-4.182a18.8 18.8 0 0 0-5.73-2.233c-1.837-.141-2.311 1.123-3.754 1.863-.807.989-1.749.767-2.584 1.453-.81.987-.615 2.8-.483 4.01zm63.744-13.35l3.815 4.237a42.473 42.473 0 0 0 4.571 5.691 5.863 5.863 0 0 0 5.02 1.383c1.177-.412 4.736-4.087 1.828-5.658-.969-.522-2.418.218-3.314.3a16.719 16.719 0 0 0-.59-5.44c-.061-.6-.193-1.812-1.372-1.4-1.44.741.256 5.164-2.021 3.843l-.966-.523-1-.826c-1.08 1.316.193 1.812 1.232 2.94a5.965 5.965 0 0 1 2.565 4.043c-3.278-2.149-3.47-3.959-5.58-6.517-1.363-1.4-2.366-2.231-4.185-2.069zm13.088-3c.826 2.061 4.06 6.654 6.276 7.37-1.5-2.611-3.437-6.406-6.276-7.37zm-223.331 22.17l2.715-.244 7.868 2.345c2.18.415 4.325.529 5.757 2.535-3.921.354-3.085-.333-6.2-.969-2.777-.361-3.621.326-5.766.211-1.239-.194-1.872-.441-2.812-.661l-8.078 1.334c-2.145-.112-2.611-1.6-3.886-2.092-1.3-.8-2.478-.389-3.621.325A29.819 29.819 0 0 0 713.14 449c-3.7 2.466-7.958 5.291-10.618 8.886-1.85 2.606-1.388 4.092-3.239 6.7-1.88 2.3-6.214 4.524-9.141 8.451-2.122 2.936-1.929 4.749-2.733 5.738a29.972 29.972 0 0 1-5.142 3.206c-.87.382-1.775.464-2.347.822a8.025 8.025 0 0 0-1.854 2.607l-2.989 3.319c-.773 1.289-3.912 6.148-4.083 7.385-.075 2.142 3.38 3.054 1.556 5.963l-.805.989c-1.981 1.4-2.513-.692-4.051-.859-1.877-.442-4.667 1.944-6.338.568-1.037-1.127-.593-2.691-.72-3.9-.466-1.484-1.134-2.034-1.565-3.215-.769-1.46-.158-4.261-2.294-7.12-1.1-1.731-2.368-2.227-3.348 0l-.712 1.892c-1.2-2.637-.519-4.835-2.7-5.252-2.776-.358-3.625 3.075-5.242 5.049-4.035 4.94-4.707 4.39-7.8 6.8l-4.1 4.336-2.557 1.756c-1.376 1.344-2.29 4.173-3 6.067l-2.958 12.167c-.646 2.5-1.732 6.566-4.381 7.409a11.594 11.594 0 0 1-4.558.105c-.971-.523-1.67-1.375-2.606-1.6a11.119 11.119 0 0 1-5.563-.721c-1.336-1.1-3.1-3.383-4.378-3.875a7.63 7.63 0 0 0-3.683-.281 24.888 24.888 0 0 1-4.861.132c-3.146-.938-5.178-5.639-6.373-8.278-.43-1.182-1.23-2.942-2.2-3.465-1.336-1.1-2.949.874-4.522.406-1.24-.2-3.982-3-5.586-3.772-.335-.276-1.341-1.1-1.908-.743-.6.052-.778 1.292-1.012 1.92-.043 2.446.629 3 2.027 4.7.333.273 1.371 1.4.527 2.088-1.406 1.041-3.436-3.659-5.019-1.38-.238.633-.2.935-.475 1.261l-.6.056-1.459-5.056-.224-2.116-2.03-4.7-2.487 2.359-.594-2.694-.83-2.061c-.466-1.483-1.669-1.376-2.813-.665-2.25 1.73-3.806 4.31-5.213 5.351-1.714 1.071-3.019.271-4.192.682-1.442.741-2.453 2.661-2.9 4.228l-2.32 12.413c-2.009 9.641-3.291 11.892-2.184 22.167l1.221 5.688 1.148 7.831 1.024 3.875.606-.057c-.422-3.929-.3-11.264.818-15.025 1.09-4.061 2.831-4.83 2.918-9.722l.721 3.907c1.648-1.68 1.52-2.888 3.832-4.008a12.961 12.961 0 0 1 1.6 3.52 21.654 21.654 0 0 0 1.362 4.149c.766 1.454 1.4 1.7 2.132 2.86a12.9 12.9 0 0 1 1.595 3.516c.836 2.062 1.495 5.362 4 6.052.981-2.224.691-4.944.726-7.391.237-.633.347-2.47.914-2.826 1.477-.44 2.074 2.255 2.171 3.16.862 2.365 1.49 5.362 2.923 7.365 1.5 2.615 2.677 2.2 4.636 6.3l.443-1.564c.831 2.061-.214 3.683 2.062 5-.132-1.209-.378-6.373.122-7.336.238-.633 1.143-.712 1.75-.764l1.406 10.248a7.281 7.281 0 0 0 1.292 3.548c1.7 1.678 3.687.277 4.451 1.735l1.191 5.384a84.066 84.066 0 0 0 4.043 12.148c1.2 2.64 2.8 6.161 4.835 8.113.7.853 1.736 1.983 2.909 1.569s.712-1.894.914-2.825c.176-1.235.743-1.591.949-2.527.141-1.539-.361-3.328.413-4.615-.4 1.868.229 2.114.426 3.929a32.609 32.609 0 0 0 1.718 7.472c1.293 3.551 2.255 6.816 4.422 9.981 1.437 2.009 4.746 4.456 6.75 6.109a71.084 71.084 0 0 0 8.754 7.757l3.947 2.7 3.278 2.149c2.91 1.569 3.218-1.209 5.028-1.368.94.22 4.245 2.667 5.248 3.494 5.081 4.733 3.411 3.358 6.917 7.62l7.911 8.443c2.039 1.952 4.571 5.7 7.353 6.052l2.782.365c3.112.638 6.593 1.85 9.844.945a3.77 3.77 0 0 0 2.588-1.451c.805-.989 1.279-2.25 2.488-2.36a39.527 39.527 0 0 1 5.387 1.96c3.213 1.539 7.762 4.184 11.177 4.791s5.872-2.052 5.309-4.442c-.862-2.365-4.474-4.786-6.4-8.579-1.868-3.187-3.16-6.733-5.3-9.595l-4.9-5.968-2.936-4.619-1.432-2.007a13.113 13.113 0 0 1-.994-3.574l-3.357-8.548c-1.53-2.914-4.554-2.641-6.514-6.737a18.129 18.129 0 0 0 5.981 4.65 41.846 41.846 0 0 0-4.228-8.166l-3.071-3.08c1.669 1.375 3.005 2.478 5.185 2.891l.642-2.5c.949-2.527 1.819-2.909 1.8-5.959-.251-5.164-5.02-12.671-5.7-19.016-.3-2.721.316-5.52.628-8.293l.084-4.892c-.1-.906.439-1.57.615-2.8l-.057-3.353a10.711 10.711 0 0 0 .452-4.317l-1.46-5.054-.087-3.656-.523-4.834c-.391-3.626 1.559-5.327 1.9-7.8.176-1.239-1.389-4.456-2.062-5.005-.971-.523-3.045-.031-2.307-1.622s3.481 1.212 4.184 2.065c.879-3.129.211-3.683-.382-6.375l-1.148-7.831c-.527-2.089-1.863-3.188-1.964-4.1.206-.935 1.111-1.016 2.184-2.332a7.94 7.94 0 0 0 1.662-4.421l.052-5.193c.339-2.471 2.426-5.711 5.081-6.559 2.681-.544 5.419 2.259 6.926 2.125s2.25-1.727 2.759-2.69l3.481-10.077.607-.056c1.5 2.615 3.072 3.083 5.107 5.037l1.74 1.98c.335.274.906-.082 1.477-.438 1.073-1.317 2.365-6.315 1.6-7.772-.431-1.182-1.767-2.283-2.233-3.766a5.381 5.381 0 0 1 .914-2.828c.712-1.9 1.087-4.066 2.461-5.41a9.1 9.1 0 0 1 11.466-1.029c1.675 1.376 1.464 2.309 2.167 3.162 1.037 1.127 2.544.994 3.041 2.78a13.113 13.113 0 0 1-.277 3.076c.2 1.814.558 2.391-.15 4.285-1.011 1.921-2.689 3.292-3.371 5.489-.945 2.527.6 2.695.22 4.863-.677 2.2-2.325 3.872-3 6.069-.778 1.291-.645 2.5-2.052 3.541-1.143.711-2.988.573-4.193.681a22.39 22.39 0 0 0-4.632 2.247 3.864 3.864 0 0 0 .492 1.786c.5 1.786 2.009 1.65 3.481 1.212 2.382-.516 5.537-2.327 7.88-.4 2.035 1.955 2.654 7.7 4.39 9.677 1.669 1.376 2.878 1.268 4.754 1.71a11.163 11.163 0 0 1 3.244 1.845c2.339 1.925 1.6 3.518 2.663 4.947 1 .823 1.877.446 2.91 1.571l4.433 7.229 3.055-2.715c1.037 1.129 2.246 1.018 2.382-.519a15.2 15.2 0 0 0-.994-3.573c2.039 1.955 2.2 3.467 2.193 6.214.066.6-.171 1.235.2 1.816a9.218 9.218 0 0 0 2.6 4.342c1.305.795 2.175.413 3.319-.3 1.046-1.617 1.657-4.421 3.27-6.394 1.35-1.648 4.03-2.192 6.452-5.159-.633-.246-2.541-.989-2.339-1.925.474-1.261 2.285-1.424 3.427-2.138a10.028 10.028 0 0 0 3.337-5.791l-3.688-.281-2.175-.415-3.019.273-2.97-2.176-4.289-.226c.738-1.591 1.248-2.554 3.059-2.716.905-.082 2.175.417 2.747.061 1.173-.413 1.041-1.622 1.885-2.307 1.613-1.976 3.99-2.494 4.338-4.966 2.478.387 3.019-.27 4.254-.077 2.544.991 3.336 5.5 4.5 7.836-3.147-.938-2.554 1.755-2.629 3.9 1.143-.712 2.488-2.358 3.661-2.77l3.956-.05a5.537 5.537 0 0 0 2.048-.794c2.078-.49 3.449.912 4.548 2.644 1.143-.712 1.078-1.318.343-2.472l1.508-.136-.862-2.361c-1.507.134-1.846-.141-2.285 1.423a4.587 4.587 0 0 0-2.843-.965l1.111-1.013-.07-.607c-2.575-1.294.379-2.169.818-3.735a2.5 2.5 0 0 0-.527-2.088l3.793-1.562c1.613-1.973 2.984-.572 3.661-2.77 3.112.637 2.088-3.238 4.439-4.06.567-.356 1.5-.134 2.11-.189.87-.382 1.74-.765 2.619-1.149a10.036 10.036 0 0 0 2.979-.574 15.473 15.473 0 0 0 3-3.317 13.911 13.911 0 0 0 1.881-2.308c.2-.933-.194-1.81-.351-3.324a2.738 2.738 0 0 0 2.944-.874c.844-.686.712-1.9-.562-2.391-.3.028-1.2.11-1.5.136l4.166-3.731.818-3.736-1.178.411.414-1.868-3.323.3c.536-.659 2.154-2.635 2.69-3.294 1.416-1.042 2.953-.874 3.666-2.772-2.98.574-6.645 3.343-8.526 5.648l-2.937 3.924.177-1.235c-2.953.877-2.761 2.69-3.9 3.4l-.57.355c.905-.081-5.159.159-4.219.381-1.542-.168-3.213-1.542-4.549-2.646-1.006-.825-1.7-1.676-2.843-.963l-5.652-4.374c.535-.659.809-.989.141-1.54s-2.241-1.02-3.547-1.818c-2.343-1.925-2.233-3.767-2.528-6.486-.254-2.417-.563-2.391-1.388-4.453a8.079 8.079 0 0 0-1.169-2.337 29.244 29.244 0 0 0-3.34-2.751c-1.336-1.1-3.005-2.476-4.548-2.644-2.175-.413-3.855.958-5.735.515-1.573-.468-3.609-2.421-5.516-3.167a17.328 17.328 0 0 0-3.956.05c-.066-.6-.2-1.812-.83-2.061-.968-.523-2.716.244-3.921.352s-1.608-.771-2.544-.994-5.2-.143-5.736.515c-.572.357-.168 1.236-.105 1.841zm215.614-31.552c2.47 3.135 6.882 7.316 10.6 7.9-1.1-1.734-2.039-1.953-3.375-3.054-1.969-1.35-5.317-4.1-7.225-4.845zM924.627 398.9l-.764-1.457a6.174 6.174 0 0 1 3.28 2.147 6.854 6.854 0 0 1 .563 2.391c.193 1.814 3.366 5.8 5.2 5.94.64.248.606-.052 1.211-.108l-1.556-5.963c-.7-.853-1.572-.468-2.609-1.6l-6.276-7.372c-.37-.578-1.767-2.283-1.565-3.215.535-.659 2.048-.8 2.654-.847l-5.748-5.283c-.669-.551-1.706-1.679-2.883-1.268s-1.61 1.976-2.121 2.935-1.309 1.95-1.214 2.857a14.773 14.773 0 0 0 2.5 3.436l5.353 4.4a9.881 9.881 0 0 0 3.972 3zm78.22-.611c-.792-4.507-3.693-8.823-7.093-12.179l-5.353-4.4c-2.066-2.255-4.3-6.021-7.34-8.8-3.339-2.751-5.852-3.441-8.824-5.616l-5.054-4.43-9.019-7.43a51.043 51.043 0 0 1-6.882-7.315c-1.8-2.586-1.293-3.547-2.33-4.674-.7-.853-3.244-1.846-4.482-2.039l.474-1.263-2.241-1.02c1.248-2.553-.5-1.786-2.268-4.067-.7-.853-.826-2.064-1.932-3.795a25.309 25.309 0 0 0-6.313-4.924l-11-6.033c-3.552-1.817-8.406-4.435-12.387-4.686-3.051-.032-5 1.669-7.991 2.241-2.679.547-8.472.457-10.328 3.063-1.88 2.3 2.831 6.46 4.537 8.139l4.773 4.758c1.372 1.4 1.767 2.283 3.164 3.988 1.345 1.1 3.947 2.7 5.02 4.127s-.712 1.9.719 3.9c1.1 1.732 3.781 3.933 4.582 5.693.431 1.182.624 3 1.626 3.822.966.523 2.109-.192 3.015-.273 1.477-.437 5.811-2.656 7.111-1.857s5.748 5.281 6.787 6.41c.667.549 2.03 1.951 1.828 2.888.166 1.51-4.589-.2-3.455 1.834.368.578 3.278 2.147 4.28 2.974l3.709 3.329 4.308 3.274c1 .827 2.1 2.558 3.076 3.082 1.908.744 2.883-1.479 4.528-.407 3.207 1.542 5.51 5.916 8.851 8.666 2.268 1.321 2.838.965 4.745 1.71 1.608.771 2.647 1.9 4.28 2.973 2.577 1.294 2.788.361 5.793 2.838a114.505 114.505 0 0 1 10.856 10.316c1.37 1.4 4.745 4.456 6.32 4.924l.9-.08 3.455-1.835a.293.293 0 0 0 .272-.33c.2-.933.07-2.142.272-3.077s.783-1.289.95-2.527c.2-.931.009-2.747.878-3.129s2.55.991 3.182 1.24zm-73.631-78.529a9.066 9.066 0 0 0-.9-2.665 12.757 12.757 0 0 0-6.655-5.2c-.93-.219-3.743-.884-4.253.077-.774 1.289 2.5 3.439 3.47 3.962 1 .825 2.277 1.321 3.28 2.148a14.142 14.142 0 0 0 5.054 1.681zm-118.18-25.4c3.991.251 5.494.117 9.308 1.6 3.481 1.214 5.52 3.167 9.511 3.419l-4.474-4.786 2.55-1.753c-1.336-1.1-1.934-1.048-3.244-1.845-.668-.55-.729-1.156-1.4-1.706-.607.056-2.119.189-2.716.244a44.239 44.239 0 0 0-5.3 1.7c-1.785.464-4.158.982-4.237 3.127zm18.291-8.36c-.44 1.564-1.917 2-3.331 3.043.333.274.369.578.7.853.975.523 5.933 1.3 7.172 1.494 3.05.032 3.155-1.808 6.741-2.436l4.491-.708c4.219-.38 9.985-.591 13.747-2.454-1.432-2.006-2.338-1.928-4.545-2.644a18.087 18.087 0 0 0-10.661.04c-3.253.9-3.121 2.112-7.348 2.492l-6.971.321zM765.25 803.188c-70.458-15.043 14.332 2.985 0 0z" class="cls-2" transform="translate(-404.082 -229.103)"/>
        </g>
    </g>
</svg>
