<svg xmlns="http://www.w3.org/2000/svg" viewBox="0 0 38.899 49.511">
    <defs>
        <style>
            .cls-1{fill:#3886be;stroke:#3886be;fill-rule:evenodd}
        </style>
    </defs>
    <path id="documents" d="M32.8 18.95v20.466h6.064a1.511 1.511 0 0 0 1.516-1.506V12.128h-6.063a3.024 3.024 0 0 1-3.029-3.041V1.516H16.121a1.519 1.519 0 0 0-1.509 1.509V7.58h9.1l9.1 10.612v.758zM13.1 7.58V3.043A3.039 3.039 0 0 1 16.132 0H32.8l9.1 10.612v27.3a3.03 3.03 0 0 1-3.028 3.018H32.8v4.562a3.03 3.03 0 0 1-3.028 3.018H7.028A3.032 3.032 0 0 1 4 45.468V10.623A3.039 3.039 0 0 1 7.036 7.58zm19.7-5.306v6.809a1.525 1.525 0 0 0 1.511 1.529h5.614L32.8 2.274zM22.192 9.1H7.025a1.519 1.519 0 0 0-1.509 1.5v34.886A1.519 1.519 0 0 0 7.032 47h22.74a1.511 1.511 0 0 0 1.516-1.506V19.708h-6.067a3.024 3.024 0 0 1-3.029-3.041V9.1zm1.516.758v6.809a1.525 1.525 0 0 0 1.511 1.529h5.614l-7.125-8.342z" class="cls-1" transform="translate(-3.5 .5)"/>
</svg>
