<svg xmlns="http://www.w3.org/2000/svg" viewBox="0 0 215.979 46.389">
    <defs>
        <style>
            .cls-1{fill:#fff}.cls-2{filter:url(#Path_47)}
        </style>
        <filter id="Path_47" width="164.463" height="22.541" x="51.516" y="9" filterUnits="userSpaceOnUse">
            <feOffset dy="1"/>
            <feGaussianBlur result="blur" stdDeviation=".5"/>
            <feFlood flood-color="#fff" flood-opacity=".161"/>
            <feComposite in2="blur" operator="in"/>
            <feComposite in="SourceGraphic"/>
        </filter>
    </defs>
    <g id="Symbol_1_1" data-name="Symbol 1 – 1" transform="translate(-152.074 -715.071)">
        <g id="Group_1" data-name="Group 1" transform="translate(65 673)">
            <g class="cls-2" transform="translate(87.07 42.07)">
                <path id="Path_47-2" d="M12.264-4.211H4.84L2.909 0H.09l8.58-18.429L16.947 0h-2.864zM11.2-6.671l-2.572-5.9-2.7 5.9zm22.083-8.209h-6.952v4.167h6.75v2.459h-6.75v5.795h6.952V0h-9.569v-17.34h9.568zm13.91 7.49L52.561 0h-3.2l-4.953-7.1h-.472V0h-2.617v-17.34h3.066q3.437 0 4.964 1.292a4.745 4.745 0 0 1 1.685 3.8 4.927 4.927 0 0 1-1.056 3.167 4.706 4.706 0 0 1-2.785 1.691zm-3.257-1.987h.831q3.717 0 3.717-2.841 0-2.662-3.616-2.662h-.932zm14.573.629a8.493 8.493 0 0 1 2.684-6.289 8.835 8.835 0 0 1 6.424-2.628 8.67 8.67 0 0 1 6.356 2.65 8.665 8.665 0 0 1 2.662 6.368A8.526 8.526 0 0 1 73.962-2.3a8.945 8.945 0 0 1-6.48 2.614 8.947 8.947 0 0 1-6.031-2.324 8.52 8.52 0 0 1-2.943-6.739zm2.639.034a6.267 6.267 0 0 0 1.932 4.728 6.2 6.2 0 0 0 4.436 1.853 6.241 6.241 0 0 0 4.6-1.887A6.386 6.386 0 0 0 74-8.67a6.354 6.354 0 0 0-1.853-4.649 6.117 6.117 0 0 0-4.56-1.887 6.178 6.178 0 0 0-4.571 1.887 6.255 6.255 0 0 0-1.868 4.604zm32.036-6.166h-6.042v4.167h5.828v2.459h-5.828V0h-2.617v-17.34h8.659zm10.249-2.459v14.88h5.1V0h-7.715v-17.34zm10.608 8.591a8.493 8.493 0 0 1 2.684-6.289 8.835 8.835 0 0 1 6.424-2.628 8.67 8.67 0 0 1 6.356 2.65 8.665 8.665 0 0 1 2.662 6.368 8.526 8.526 0 0 1-2.673 6.347 8.945 8.945 0 0 1-6.48 2.617 8.947 8.947 0 0 1-6.031-2.325 8.52 8.52 0 0 1-2.942-6.741zm2.639.034a6.267 6.267 0 0 0 1.932 4.728 6.2 6.2 0 0 0 4.436 1.853 6.241 6.241 0 0 0 4.6-1.887 6.386 6.386 0 0 0 1.875-4.649 6.354 6.354 0 0 0-1.853-4.649 6.117 6.117 0 0 0-4.56-1.887 6.178 6.178 0 0 0-4.571 1.887 6.255 6.255 0 0 0-1.859 4.603zm23.49-8.625l4.515 11.59 4.715-12.433 4.516 12.432 4.8-11.59h2.841L153.8 1.1l-4.458-12.286L144.7 1.112l-7.372-18.452z" class="cls-1" data-name="Path 47" transform="translate(52.93 27.93)"/>
            </g>
            <path id="Path_48" d="M.984 0v-5.832h.984v2.4H3.1l.576-1.3a3.658 3.658 0 0 1 .336-.624 1.559 1.559 0 0 1 .36-.378 1.207 1.207 0 0 1 .4-.192 1.731 1.731 0 0 1 .444-.054.869.869 0 0 1 .336.06l-.168.924a.277.277 0 0 0-.1-.024h-.1a.784.784 0 0 0-.222.03.583.583 0 0 0-.2.114 1.181 1.181 0 0 0-.21.24 2.358 2.358 0 0 0-.216.408L3.84-3.072 5.82 0H4.74L3.12-2.628H1.968V0zm8.04.144A2.624 2.624 0 0 1 8-.06a2.527 2.527 0 0 1-.86-.594 2.892 2.892 0 0 1-.594-.96A3.532 3.532 0 0 1 6.324-2.9a3.568 3.568 0 0 1 .222-1.3 2.962 2.962 0 0 1 .594-.966A2.489 2.489 0 0 1 8-5.772a2.624 2.624 0 0 1 1.026-.2 2.624 2.624 0 0 1 1.026.2 2.489 2.489 0 0 1 .858.6 2.962 2.962 0 0 1 .594.966 3.568 3.568 0 0 1 .222 1.3 3.532 3.532 0 0 1-.222 1.29 2.892 2.892 0 0 1-.594.96 2.527 2.527 0 0 1-.858.594 2.624 2.624 0 0 1-1.028.206zm0-.816a1.462 1.462 0 0 0 .684-.162 1.572 1.572 0 0 0 .534-.456 2.168 2.168 0 0 0 .342-.7 3.228 3.228 0 0 0 .116-.91 3.291 3.291 0 0 0-.12-.918 2.233 2.233 0 0 0-.342-.714A1.547 1.547 0 0 0 9.708-5a1.462 1.462 0 0 0-.684-.162A1.462 1.462 0 0 0 8.34-5a1.547 1.547 0 0 0-.534.462 2.233 2.233 0 0 0-.342.714 3.291 3.291 0 0 0-.12.918 3.228 3.228 0 0 0 .12.912 2.168 2.168 0 0 0 .342.7 1.572 1.572 0 0 0 .534.456 1.462 1.462 0 0 0 .684.166zM13.26 0v-5.832h1.14L15.54-3.1q.132.36.264.714t.264.7h.048q.132-.348.27-.7t.258-.714l1.116-2.732h1.128V0h-.9v-2.616q0-.192.012-.45t.03-.528l.036-.54q.018-.27.042-.5h-.048q-.132.348-.27.7t-.27.678l-1.1 2.7h-.66l-1.128-2.7q-.132-.324-.27-.678t-.27-.7h-.052q.012.228.03.5l.036.54q.018.27.03.528t.012.45V0zm7.6 0v-5.832h4.668V0h-.988v-5.028h-2.7V0zm9 .144a2.855 2.855 0 0 1-1.1-.21 2.6 2.6 0 0 1-.888-.6 2.778 2.778 0 0 1-.594-.954 3.571 3.571 0 0 1-.218-1.28 3.532 3.532 0 0 1 .222-1.29 3.019 3.019 0 0 1 .588-.966 2.551 2.551 0 0 1 .834-.606 2.349 2.349 0 0 1 .972-.21 2.442 2.442 0 0 1 .99.192 1.931 1.931 0 0 1 .732.552 2.533 2.533 0 0 1 .45.864A3.807 3.807 0 0 1 32-3.24q0 .156-.006.306a1.478 1.478 0 0 1-.03.258h-3.932a2.278 2.278 0 0 0 .582 1.482 1.8 1.8 0 0 0 1.362.546 2.293 2.293 0 0 0 .774-.126 3.425 3.425 0 0 0 .678-.33l.348.648a4.968 4.968 0 0 1-.852.42 2.96 2.96 0 0 1-1.068.18zm-1.84-3.528h3.12a2.089 2.089 0 0 0-.378-1.35A1.3 1.3 0 0 0 29.7-5.2a1.5 1.5 0 0 0-.594.12 1.564 1.564 0 0 0-.51.354 1.94 1.94 0 0 0-.378.57 2.573 2.573 0 0 0-.198.772zM33.444 0v-5.832h.984v2.364h2.808v-2.364h.984V0h-.984v-2.592h-2.808V0zm9.048.144a2.851 2.851 0 0 1-1.08-.2 2.426 2.426 0 0 1-.87-.594 2.794 2.794 0 0 1-.576-.96 3.713 3.713 0 0 1-.21-1.29 3.484 3.484 0 0 1 .228-1.3 2.933 2.933 0 0 1 .612-.966 2.553 2.553 0 0 1 .894-.6 2.865 2.865 0 0 1 1.074-.2 2.181 2.181 0 0 1 .984.2 3.321 3.321 0 0 1 .72.48l-.5.648a2.47 2.47 0 0 0-.534-.372 1.365 1.365 0 0 0-.63-.144 1.663 1.663 0 0 0-.736.154 1.646 1.646 0 0 0-.576.462 2.29 2.29 0 0 0-.378.714 2.89 2.89 0 0 0-.138.918 2.954 2.954 0 0 0 .132.912 2.2 2.2 0 0 0 .366.7 1.618 1.618 0 0 0 .57.456 1.663 1.663 0 0 0 .732.162 1.63 1.63 0 0 0 .75-.174 3.032 3.032 0 0 0 .618-.414l.432.66a3.124 3.124 0 0 1-.876.546 2.618 2.618 0 0 1-1.008.202zm4.392 0a1.766 1.766 0 0 1-1.218-.432 1.552 1.552 0 0 1-.486-1.224 1.619 1.619 0 0 1 .852-1.47 7.036 7.036 0 0 1 2.724-.718 2.688 2.688 0 0 0-.054-.54 1.351 1.351 0 0 0-.186-.468.977.977 0 0 0-.366-.33 1.245 1.245 0 0 0-.594-.126 2.363 2.363 0 0 0-.948.192 4.624 4.624 0 0 0-.792.432l-.384-.684a6.367 6.367 0 0 1 1-.51 3.326 3.326 0 0 1 1.3-.246 1.792 1.792 0 0 1 1.548.654 2.886 2.886 0 0 1 .48 1.746V0h-.816l-.084-.7h-.036a4.934 4.934 0 0 1-.9.594 2.23 2.23 0 0 1-1.04.25zm.288-.792a1.661 1.661 0 0 0 .792-.2 3.969 3.969 0 0 0 .792-.582v-1.62a9.955 9.955 0 0 0-1.23.228 3.242 3.242 0 0 0-.8.312 1.209 1.209 0 0 0-.444.414.986.986 0 0 0-.138.51.827.827 0 0 0 .3.72 1.22 1.22 0 0 0 .728.218zM51.588 0v-5.832h.984V-.8h2.616v-5.032h.984V-.8h.852v.62l-.1 2.244h-.852V0zm6.648 0v-5.832h.96v2.424q0 .468-.03 1.026T59.1-1.26h.048q.168-.276.39-.624t.378-.624l2.208-3.324h.924V0h-.96v-2.424q0-.468.03-1.026t.066-1.134h-.048q-.168.276-.39.63t-.378.618L59.148 0zm10 0v-2.3H67.14L65.532 0h-1.116l1.776-2.436a2.122 2.122 0 0 1-.948-.57 1.524 1.524 0 0 1-.384-1.1 1.72 1.72 0 0 1 .174-.81 1.436 1.436 0 0 1 .48-.534 2.082 2.082 0 0 1 .726-.294 4.352 4.352 0 0 1 .912-.09h2.064V0zm-.916-3.024h.912v-2.04h-.912a2.087 2.087 0 0 0-1.074.234.809.809 0 0 0-.39.75.9.9 0 0 0 .39.786 1.863 1.863 0 0 0 1.074.27zM75.252.144A3.99 3.99 0 0 1 74.1-.018 3.084 3.084 0 0 1 73.044-.6l.42-.636a2.381 2.381 0 0 0 .834.462 3.052 3.052 0 0 0 .87.126 2.136 2.136 0 0 0 .564-.072 1.572 1.572 0 0 0 .462-.2.983.983 0 0 0 .312-.33.862.862 0 0 0 .114-.438.815.815 0 0 0-.384-.744 2.094 2.094 0 0 0-1.1-.24h-.8v-.708h.66a1.838 1.838 0 0 0 1.056-.246.785.785 0 0 0 .348-.678.745.745 0 0 0-.336-.666 1.563 1.563 0 0 0-.884-.23 2.568 2.568 0 0 0-.87.132 2.89 2.89 0 0 0-.714.384l-.42-.648a3.631 3.631 0 0 1 .918-.474 3.428 3.428 0 0 1 1.134-.174 3.355 3.355 0 0 1 .816.1 2.133 2.133 0 0 1 .672.288 1.47 1.47 0 0 1 .462.492 1.362 1.362 0 0 1 .174.7 1.28 1.28 0 0 1-.252.768 1.55 1.55 0 0 1-.708.528v.048a1.906 1.906 0 0 1 .858.474 1.3 1.3 0 0 1 .354.978 1.408 1.408 0 0 1-.192.732 1.782 1.782 0 0 1-.516.552 2.441 2.441 0 0 1-.75.348 3.282 3.282 0 0 1-.894.116zm5.148 0a1.766 1.766 0 0 1-1.218-.432 1.552 1.552 0 0 1-.482-1.224 1.619 1.619 0 0 1 .852-1.47 7.036 7.036 0 0 1 2.72-.718 2.688 2.688 0 0 0-.054-.54 1.351 1.351 0 0 0-.186-.468.977.977 0 0 0-.366-.33 1.245 1.245 0 0 0-.594-.126 2.363 2.363 0 0 0-.948.192 4.624 4.624 0 0 0-.792.432l-.384-.684a6.367 6.367 0 0 1 1-.51 3.326 3.326 0 0 1 1.3-.246 1.792 1.792 0 0 1 1.548.654 2.886 2.886 0 0 1 .48 1.746V0h-.816l-.084-.7h-.036a4.935 4.935 0 0 1-.9.594 2.23 2.23 0 0 1-1.04.25zm.288-.792a1.661 1.661 0 0 0 .792-.2 3.969 3.969 0 0 0 .792-.582v-1.62a9.955 9.955 0 0 0-1.23.228 3.242 3.242 0 0 0-.8.312 1.209 1.209 0 0 0-.444.414.986.986 0 0 0-.138.51.827.827 0 0 0 .3.72 1.219 1.219 0 0 0 .728.218zm8.16.792a1.766 1.766 0 0 1-1.218-.432 1.552 1.552 0 0 1-.486-1.224A1.619 1.619 0 0 1 88-2.982a7.036 7.036 0 0 1 2.72-.718 2.688 2.688 0 0 0-.054-.54 1.351 1.351 0 0 0-.186-.46.977.977 0 0 0-.366-.33 1.245 1.245 0 0 0-.594-.126 2.363 2.363 0 0 0-.948.192 4.624 4.624 0 0 0-.792.432l-.38-.688a6.367 6.367 0 0 1 1-.51 3.326 3.326 0 0 1 1.3-.246 1.792 1.792 0 0 1 1.548.654 2.886 2.886 0 0 1 .48 1.746V0H90.9l-.084-.7h-.036a4.935 4.935 0 0 1-.9.594 2.23 2.23 0 0 1-1.032.25zm.288-.792a1.661 1.661 0 0 0 .792-.2 3.969 3.969 0 0 0 .792-.582v-1.62a9.955 9.955 0 0 0-1.23.228 3.242 3.242 0 0 0-.8.312 1.209 1.209 0 0 0-.444.414.986.986 0 0 0-.138.51.827.827 0 0 0 .3.72 1.219 1.219 0 0 0 .728.218zM93.552 0v-5.832H95.8a4.229 4.229 0 0 1 .876.084 2.121 2.121 0 0 1 .678.258 1.227 1.227 0 0 1 .438.456 1.381 1.381 0 0 1 .156.678 1.22 1.22 0 0 1-.258.8 1.4 1.4 0 0 1-.714.444v.036a2.3 2.3 0 0 1 .474.168 1.434 1.434 0 0 1 .39.276 1.2 1.2 0 0 1 .264.408 1.478 1.478 0 0 1 .1.552 1.5 1.5 0 0 1-.174.744 1.533 1.533 0 0 1-.48.522 2.094 2.094 0 0 1-.726.306 4.149 4.149 0 0 1-.924.1zm.972-3.384h1.1a1.78 1.78 0 0 0 1.044-.234.759.759 0 0 0 .312-.642.753.753 0 0 0-.3-.636 1.65 1.65 0 0 0-.984-.228h-1.172zm0 2.676h1.26a1.793 1.793 0 0 0 1.074-.264.886.886 0 0 0 .354-.756.8.8 0 0 0-.372-.7 2 2 0 0 0-1.116-.252h-1.2zM99.648 0v-5.832h.96v2.424q0 .468-.03 1.026t-.066 1.122h.048q.168-.276.39-.624t.378-.624l2.208-3.324h.924V0h-.96v-2.424q0-.468.03-1.026t.066-1.134h-.048q-.168.276-.39.63t-.378.618L100.56 0zm8.124.144a1.766 1.766 0 0 1-1.218-.432 1.552 1.552 0 0 1-.486-1.224 1.619 1.619 0 0 1 .852-1.47 7.036 7.036 0 0 1 2.724-.714 2.688 2.688 0 0 0-.054-.54 1.351 1.351 0 0 0-.19-.464.977.977 0 0 0-.366-.33 1.245 1.245 0 0 0-.594-.126 2.363 2.363 0 0 0-.948.192 4.624 4.624 0 0 0-.792.432l-.384-.684a6.367 6.367 0 0 1 1-.51 3.326 3.326 0 0 1 1.3-.246 1.792 1.792 0 0 1 1.548.654 2.886 2.886 0 0 1 .48 1.746V0h-.816l-.084-.7h-.044a4.935 4.935 0 0 1-.9.594 2.23 2.23 0 0 1-1.028.25zm.288-.792a1.661 1.661 0 0 0 .792-.2 3.969 3.969 0 0 0 .792-.582v-1.62a9.955 9.955 0 0 0-1.23.228 3.242 3.242 0 0 0-.8.312 1.209 1.209 0 0 0-.444.414.986.986 0 0 0-.138.51.827.827 0 0 0 .3.72 1.219 1.219 0 0 0 .728.218zm4.416.648v-5.832h4.668V0h-.984v-5.028h-2.7V0zm9 .144a2.855 2.855 0 0 1-1.1-.21 2.6 2.6 0 0 1-.888-.6 2.778 2.778 0 0 1-.594-.954 3.571 3.571 0 0 1-.214-1.28 3.532 3.532 0 0 1 .222-1.29 3.019 3.019 0 0 1 .588-.966 2.551 2.551 0 0 1 .834-.606 2.349 2.349 0 0 1 .972-.21 2.442 2.442 0 0 1 .99.192 1.931 1.931 0 0 1 .732.552 2.533 2.533 0 0 1 .45.864 3.807 3.807 0 0 1 .156 1.128q0 .156-.006.306a1.478 1.478 0 0 1-.03.258h-3.936a2.278 2.278 0 0 0 .582 1.482 1.8 1.8 0 0 0 1.362.546 2.293 2.293 0 0 0 .774-.126 3.425 3.425 0 0 0 .678-.33l.348.648a4.968 4.968 0 0 1-.852.42 2.96 2.96 0 0 1-1.068.176zm-1.836-3.528h3.12a2.089 2.089 0 0 0-.378-1.35 1.3 1.3 0 0 0-1.062-.466 1.5 1.5 0 0 0-.594.12 1.564 1.564 0 0 0-.51.354 1.94 1.94 0 0 0-.378.57 2.573 2.573 0 0 0-.198.772zm5.424 5.844v-8.292h.816l.084.672H126a4.437 4.437 0 0 1 .87-.576 2.164 2.164 0 0 1 .99-.24 2.251 2.251 0 0 1 1 .21 1.935 1.935 0 0 1 .72.6 2.814 2.814 0 0 1 .438.936 4.646 4.646 0 0 1 .15 1.23 4 4 0 0 1-.2 1.326 3.074 3.074 0 0 1-.552.99 2.335 2.335 0 0 1-.8.618 2.269 2.269 0 0 1-.96.21 1.966 1.966 0 0 1-.81-.18 4.1 4.1 0 0 1-.81-.492l.024 1.02V2.46zm2.412-3.144a1.4 1.4 0 0 0 .666-.162 1.591 1.591 0 0 0 .528-.456 2.229 2.229 0 0 0 .348-.726 3.47 3.47 0 0 0 .126-.972 4.229 4.229 0 0 0-.084-.876 1.958 1.958 0 0 0-.27-.678 1.294 1.294 0 0 0-.48-.438 1.479 1.479 0 0 0-.7-.156 1.569 1.569 0 0 0-.75.2 4.386 4.386 0 0 0-.81.588v3.06a2.62 2.62 0 0 0 .768.474 1.93 1.93 0 0 0 .658.142zm6.612.828a2.855 2.855 0 0 1-1.1-.21 2.6 2.6 0 0 1-.888-.6 2.778 2.778 0 0 1-.594-.954 3.571 3.571 0 0 1-.216-1.284 3.532 3.532 0 0 1 .222-1.29 3.019 3.019 0 0 1 .588-.966 2.551 2.551 0 0 1 .834-.606 2.349 2.349 0 0 1 .972-.21 2.442 2.442 0 0 1 .99.192 1.931 1.931 0 0 1 .732.552 2.533 2.533 0 0 1 .45.864 3.807 3.807 0 0 1 .156 1.128q0 .156-.006.306a1.48 1.48 0 0 1-.03.258h-3.936a2.277 2.277 0 0 0 .582 1.482 1.8 1.8 0 0 0 1.362.546 2.293 2.293 0 0 0 .774-.126 3.425 3.425 0 0 0 .678-.33l.348.648a4.968 4.968 0 0 1-.852.42 2.96 2.96 0 0 1-1.066.18zm-1.836-3.528h3.12a2.089 2.089 0 0 0-.378-1.35 1.3 1.3 0 0 0-1.062-.462 1.5 1.5 0 0 0-.594.12 1.564 1.564 0 0 0-.51.354 1.94 1.94 0 0 0-.378.57 2.573 2.573 0 0 0-.198.768zM137.34.144a1.4 1.4 0 0 1-.282-.024 1.825 1.825 0 0 1-.246-.072L137-.864a.684.684 0 0 0 .12.036.745.745 0 0 0 .144.012.58.58 0 0 0 .5-.294 2.339 2.339 0 0 0 .276-.942q.12-.948.228-1.89t.216-1.89h3.588V0h-1v-5.028h-1.812q-.1.8-.192 1.614t-.18 1.614Q138.636.144 137.34.144zm9.072 0a2.855 2.855 0 0 1-1.1-.21 2.6 2.6 0 0 1-.888-.6 2.778 2.778 0 0 1-.594-.954 3.571 3.571 0 0 1-.216-1.284 3.532 3.532 0 0 1 .222-1.29 3.019 3.019 0 0 1 .588-.966 2.551 2.551 0 0 1 .834-.606 2.349 2.349 0 0 1 .972-.21 2.442 2.442 0 0 1 .99.192 1.931 1.931 0 0 1 .732.552 2.533 2.533 0 0 1 .45.864 3.807 3.807 0 0 1 .156 1.128q0 .156-.006.306a1.48 1.48 0 0 1-.03.258h-3.936a2.277 2.277 0 0 0 .582 1.482 1.8 1.8 0 0 0 1.362.546 2.293 2.293 0 0 0 .774-.126 3.425 3.425 0 0 0 .678-.33l.348.648a4.968 4.968 0 0 1-.852.42 2.96 2.96 0 0 1-1.066.18zm-1.836-3.528h3.12a2.089 2.089 0 0 0-.378-1.35 1.3 1.3 0 0 0-1.062-.462 1.5 1.5 0 0 0-.594.12 1.564 1.564 0 0 0-.51.354 1.94 1.94 0 0 0-.378.57 2.573 2.573 0 0 0-.198.768zM151.164 0v-5.028h-1.956v-.8h4.9v.8h-1.956V0zm4.236 0v-5.832h.984v2.148h.828a3.833 3.833 0 0 1 .942.108 2.12 2.12 0 0 1 .732.33 1.507 1.507 0 0 1 .474.564 1.848 1.848 0 0 1 .168.822 1.918 1.918 0 0 1-.168.84 1.545 1.545 0 0 1-.474.576 2.056 2.056 0 0 1-.732.336 3.833 3.833 0 0 1-.942.108zm.984-.792h.72q1.452 0 1.452-1.068a.919.919 0 0 0-.354-.8 1.91 1.91 0 0 0-1.1-.252h-.72zm4.152.792v-5.832h.984V0z" class="cls-1" data-name="Path 48" transform="translate(140 86)"/>
        </g>
        <path id="Path_2" d="M33.344 4.608c-9.521 4.643-18.891 9.219-28.362 13.828 2.086 1.329 4.037 2.574 6.006 3.8 1.043.673 1.379 1.6.875 2.439A1.987 1.987 0 0 1 9 25.249c-2.655-1.733-5.313-3.516-8-5.215-1.161-.723-1.531-2.2.151-3.028C12.266 11.505 23.352 5.92 34.454.369a1.784 1.784 0 0 1 1.969-.084 1.753 1.753 0 0 1 .521 1.968q-1.792 9.084-3.617 18.185-1.514 7.57-3.011 15.14a1.634 1.634 0 0 1-2.675 1.077q-3.684-2.448-7.334-4.9c-.252-.168-.5-.32-.824-.521-1.245 1.262-2.473 2.473-3.7 3.718-.538.538-1.127 1.009-1.918.69a1.837 1.837 0 0 1-1.077-1.918c.017-2.389-.017-4.761.034-7.149a2.2 2.2 0 0 1 .5-1.262q6.182-6.712 12.4-13.39a1.658 1.658 0 0 1 2.523-.252 1.689 1.689 0 0 1-.1 2.523c-3.819 4.138-7.637 8.293-11.49 12.4a2.625 2.625 0 0 0-.892 2.288 12.01 12.01 0 0 1 .017 1.4c.757-.639 1.379-1.178 2-1.7 1.363-1.178 1.632-1.178 3.163-.2 2.187 1.4 4.391 2.792 6.7 4.256 1.883-9.338 3.767-18.576 5.701-28.03z" class="cls-1" data-name="Path 2" transform="rotate(14 -2831.302 1013.256)"/>
    </g>
</svg>
