<svg xmlns="http://www.w3.org/2000/svg" viewBox="0 0 139.209 28.801">
    <defs>
        <style>
            .cls-1{fill:#3886be}.cls-2{filter:url(#Path_47)}
        </style>
        <filter id="Path_47" width="106.669" height="15.546" x="32.54" y="8.6" filterUnits="userSpaceOnUse">
            <feOffset dy="1"/>
            <feGaussianBlur result="blur" stdDeviation=".5"/>
            <feFlood flood-color="#fff" flood-opacity=".161"/>
            <feComposite in2="blur" operator="in"/>
            <feComposite in="SourceGraphic"/>
        </filter>
    </defs>
    <g id="Group_301" data-name="Group 301" transform="translate(-560.074 -4495.071)">
        <g id="Group_1" class="cls-2" data-name="Group 1" transform="translate(560.074 4495.07)">
            <path id="Path_47-2" d="M7.906-9.3H3.14L1.9-6.6H.09L5.6-18.429 10.913-6.6H9.074zm-.685-1.58L5.57-14.665 3.839-10.88zM21.4-16.151h-4.462v2.675h4.334v1.576h-4.334v3.721H21.4V-6.6h-6.142v-11.13H21.4zm8.931 4.81L33.78-6.6h-2.055l-3.18-4.557h-.3V-6.6h-1.68v-11.13h1.965a4.918 4.918 0 0 1 3.187.829 3.046 3.046 0 0 1 1.083 2.438 3.163 3.163 0 0 1-.678 2.033 3.021 3.021 0 0 1-1.789 1.089zm-2.091-1.276h.534q2.387 0 2.387-1.824 0-1.709-2.322-1.709h-.6zm9.357.4a5.453 5.453 0 0 1 1.723-4.038 5.672 5.672 0 0 1 4.125-1.687 5.567 5.567 0 0 1 4.081 1.7 5.563 5.563 0 0 1 1.709 4.088 5.474 5.474 0 0 1-1.715 4.079 5.743 5.743 0 0 1-4.161 1.68 5.745 5.745 0 0 1-3.872-1.493 5.47 5.47 0 0 1-1.887-4.326zm1.695.022a4.024 4.024 0 0 0 1.24 3.036 3.981 3.981 0 0 0 2.848 1.19 4.007 4.007 0 0 0 2.956-1.211 4.1 4.1 0 0 0 1.2-2.985 4.079 4.079 0 0 0-1.19-2.985 3.928 3.928 0 0 0-2.928-1.211 3.966 3.966 0 0 0-2.935 1.211 4.016 4.016 0 0 0-1.19 2.958zm20.569-3.959h-3.878v2.675h3.742v1.579h-3.742v5.3H54.3v-11.13h5.559zm6.58-1.579v9.554h3.274V-6.6h-4.953v-11.13zm6.811 5.516a5.453 5.453 0 0 1 1.723-4.038 5.672 5.672 0 0 1 4.125-1.684 5.567 5.567 0 0 1 4.081 1.7 5.563 5.563 0 0 1 1.709 4.088 5.474 5.474 0 0 1-1.716 4.074 5.743 5.743 0 0 1-4.161 1.68 5.745 5.745 0 0 1-3.872-1.493 5.47 5.47 0 0 1-1.887-4.324zm1.695.022a4.024 4.024 0 0 0 1.24 3.036 3.981 3.981 0 0 0 2.848 1.19 4.007 4.007 0 0 0 2.956-1.211 4.1 4.1 0 0 0 1.2-2.985 4.079 4.079 0 0 0-1.19-2.985 3.928 3.928 0 0 0-2.921-1.21 3.966 3.966 0 0 0-2.935 1.211 4.016 4.016 0 0 0-1.197 2.957zM90.03-17.73l2.9 7.441 3.028-7.982 2.9 7.982 3.079-7.441h1.824L98.784-5.89l-2.863-7.888-2.985 7.9-4.73-11.852z" class="cls-1" data-name="Path 47" transform="translate(33.95 27.53)"/>
        </g>
        <path id="Path_2" d="M21.407 2.947C15.294 5.928 9.278 8.866 3.2 11.825c1.339.853 2.592 1.653 3.856 2.441.67.432.886 1.026.562 1.566a1.276 1.276 0 0 1-1.836.367c-1.71-1.112-3.417-2.257-5.145-3.348a1.034 1.034 0 0 1 .1-1.944C7.874 7.375 14.991 3.789 22.12.225a1.146 1.146 0 0 1 1.264-.054 1.126 1.126 0 0 1 .335 1.264Q22.568 7.267 21.4 13.11q-.972 4.86-1.933 9.721a1.049 1.049 0 0 1-1.717.691q-2.365-1.572-4.709-3.143c-.162-.108-.324-.205-.529-.335-.8.81-1.588 1.588-2.376 2.387-.346.346-.724.648-1.231.443a1.18 1.18 0 0 1-.691-1.231c.011-1.534-.011-3.057.022-4.59a1.41 1.41 0 0 1 .324-.81q3.969-4.31 7.96-8.6a1.064 1.064 0 0 1 1.62-.162 1.085 1.085 0 0 1-.07 1.619c-2.452 2.657-4.9 5.325-7.377 7.96a1.685 1.685 0 0 0-.572 1.469 7.711 7.711 0 0 1 .011.9c.486-.41.886-.756 1.285-1.091.875-.756 1.048-.756 2.031-.13 1.4.9 2.819 1.793 4.3 2.733a5807.344 5807.344 0 0 1 3.659-17.994z" class="cls-1" data-name="Path 2" transform="rotate(14 -18021.797 4551.66)"/>
    </g>
</svg>
