<svg xmlns="http://www.w3.org/2000/svg" viewBox="0 0 52 46.341">
    <defs>
        <style>
            .cls-1{fill:#3886be;fill-rule:evenodd}
        </style>
    </defs>
    <path id="_07.Wallet" d="M53 44.695a5.651 5.651 0 0 1-5.652 5.652H6.652A5.651 5.651 0 0 1 1 44.695V11.912a4.522 4.522 0 0 1 4.522-4.521h22.8l9.155-3.317a1.119 1.119 0 0 1 1.433.666l.964 2.651h4.08a4.522 4.522 0 0 1 4.522 4.522v2.261A4.522 4.522 0 0 1 53 18.695zM5.522 9.651a2.261 2.261 0 0 0 0 4.522H9.63c.015-.006.024-.018.038-.024l12.414-4.5zm32.871.2l-1.2-3.305-2.319.84-6.231 2.265h-.011l-12.48 4.522h23.81zm7.825 2.056a2.262 2.262 0 0 0-2.261-2.261H40.7l1.644 4.522h3.876zm2.261 4.522H5.522a4.471 4.471 0 0 1-2.261-.627v28.893a3.392 3.392 0 0 0 3.391 3.391h40.7a3.391 3.391 0 0 0 3.391-3.391v-7.913h-4.525a4.522 4.522 0 0 1 0-9.044h4.522v-9.043a2.262 2.262 0 0 0-2.262-2.261zm2.261 18.087V30h-4.522a2.261 2.261 0 1 0 0 4.522zm-4.522-3.386h2.261v2.261h-2.261z" class="cls-1" data-name="07.Wallet" transform="translate(-1 -4.006)"/>
</svg>
