<svg xmlns="http://www.w3.org/2000/svg" viewBox="0 0 56 56">
    <defs>
        <style>
            .cls-1,.cls-4{fill:none}.cls-1{stroke:#fff}.cls-2{fill:#fff}.cls-3{stroke:none}
        </style>
    </defs>
    <g id="Group_3" data-name="Group 3" transform="translate(-1180 -59)">
        <g id="Ellipse_7" class="cls-1" data-name="Ellipse 7" transform="translate(1180 59)">
            <circle cx="28" cy="28" r="28" class="cls-3"/>
            <circle cx="28" cy="28" r="27.5" class="cls-4"/>
        </g>
        <path id="Path_150" d="M6.683-7.339a7.785 7.785 0 0 1 .1-3.055 10.381 10.381 0 0 1 1-2.542 16.194 16.194 0 0 1 1.476-2.194q.82-1.025 1.558-2.03a11.966 11.966 0 0 0 1.23-2.07 5.509 5.509 0 0 0 .492-2.337 6.27 6.27 0 0 0-.267-1.824 4.108 4.108 0 0 0-.84-1.537 4.1 4.1 0 0 0-1.456-1.045 5.088 5.088 0 0 0-2.07-.39 6.459 6.459 0 0 0-2.891.677 7.09 7.09 0 0 0-2.4 1.948l-1.098-1.026a10.864 10.864 0 0 1 2.809-2.276 7.447 7.447 0 0 1 3.751-.923 7.176 7.176 0 0 1 2.665.472 5.7 5.7 0 0 1 2.009 1.312A5.652 5.652 0 0 1 14-24.19a7.068 7.068 0 0 1 .431 2.5 6.31 6.31 0 0 1-.512 2.562 13.312 13.312 0 0 1-1.251 2.235q-.738 1.066-1.578 2.111a19.379 19.379 0 0 0-1.517 2.173 10.668 10.668 0 0 0-1.066 2.419 6.744 6.744 0 0 0-.184 2.85zM7.626.492A1.689 1.689 0 0 1 6.417 0 1.787 1.787 0 0 1 5.9-1.353a1.842 1.842 0 0 1 .513-1.394 1.689 1.689 0 0 1 1.21-.492 1.759 1.759 0 0 1 1.23.492 1.8 1.8 0 0 1 .533 1.394A1.75 1.75 0 0 1 8.856 0a1.759 1.759 0 0 1-1.23.492z" class="cls-2" data-name="Path 150" transform="translate(1200 100)"/>
    </g>
</svg>
