<svg xmlns="http://www.w3.org/2000/svg" viewBox="0 0 74.187 48.511">
    <defs>
        <style>
            .cls-1{opacity:.499}.cls-2,.cls-3{fill:#3886be}.cls-2{fill-rule:evenodd}
        </style>
    </defs>
    <g id="Group_103" data-name="Group 103" transform="translate(-468.533 -3034.489)">
        <g id="icon-1-mail-envelope" class="cls-1" transform="translate(471.533 3037)">
            <g id="icon-1-mail-envelope-2" data-name="icon-1-mail-envelope" transform="translate(-3 8)">
                <path id="mail-envelope" d="M8.279 8A4.271 4.271 0 0 0 4 12.259v25.653a4.259 4.259 0 0 0 4.279 4.258h44.833a4.271 4.271 0 0 0 4.279-4.259V12.259A4.259 4.259 0 0 0 53.112 8zm0 2.136a2.145 2.145 0 0 0-2.142 2.15v25.6a2.132 2.132 0 0 0 2.142 2.15h44.834a2.145 2.145 0 0 0 2.142-2.15v-25.6a2.132 2.132 0 0 0-2.142-2.15zm38.435 6.407v2.136h2.136v-2.136zM10.407 29.357v2.136h17.085v-2.136zm0-14.95v2.136h8.543v-2.136zm0 19.221v2.136h17.085v-2.136z" class="cls-2" transform="translate(-4 -8)"/>
            </g>
        </g>
        <g id="essential-regular-50-magnifier-plus" transform="translate(493.208 3033.489)">
            <path id="Path_39" d="M49.511 47.145l-15.72-15.72A18.547 18.547 0 1 0 1 19.593a18.54 18.54 0 0 0 18.593 18.593 18.223 18.223 0 0 0 11.832-4.395l15.72 15.72zM19.593 34.806a15.213 15.213 0 1 1 15.213-15.213 15.149 15.149 0 0 1-15.213 15.213z" class="cls-3" data-name="Path 39"/>
            <path id="Path_40" d="M16.451 8h-3.38v5.071H8v3.381h5.071v5.071h3.381v-5.072h5.071v-3.38h-5.072z" class="cls-3" data-name="Path 40" transform="translate(4.832 4.832)"/>
        </g>
    </g>
</svg>
