<svg xmlns="http://www.w3.org/2000/svg" viewBox="0 0 29.09 29.079">
    <defs>
        <style>
            .cls-1{fill:#fff}
        </style>
    </defs>
    <path id="Path_168" d="M21.617 2.994C15.444 6 9.37 8.97 3.231 11.958c1.352.861 2.617 1.668 3.893 2.465.676.436.894 1.036.567 1.581a1.288 1.288 0 0 1-1.854.371C4.114 15.251 2.391 14.1.646 12.994a1.044 1.044 0 0 1 .1-1.963C7.953 7.465 15.139 3.845 22.336.246a1.157 1.157 0 0 1 1.276-.055 1.136 1.136 0 0 1 .338 1.276q-1.161 5.889-2.345 11.788-.981 4.907-1.952 9.815a1.059 1.059 0 0 1-1.734.7q-2.388-1.587-4.755-3.173c-.164-.109-.327-.207-.534-.338-.807.818-1.6 1.6-2.4 2.41-.349.349-.731.654-1.243.447a1.191 1.191 0 0 1-.7-1.243c.011-1.549-.011-3.086.022-4.635a1.423 1.423 0 0 1 .327-.818q4.008-4.351 8.037-8.68a1.074 1.074 0 0 1 1.636-.164 1.1 1.1 0 0 1-.065 1.636c-2.475 2.683-4.951 5.376-7.448 8.037a1.7 1.7 0 0 0-.578 1.483 7.785 7.785 0 0 1 .011.905c.491-.414.894-.763 1.3-1.1.883-.763 1.058-.763 2.05-.131 1.418.905 2.846 1.81 4.34 2.759a6446.79 6446.79 0 0 1 3.698-18.171z" class="cls-1" data-name="Path 168" transform="rotate(14 2.98 23.625)"/>
</svg>
