<svg xmlns="http://www.w3.org/2000/svg" viewBox="0 0 18 18">
    <defs>
        <style>
            .cls-1{fill:#ff8181}
        </style>
    </defs>
    <path id="Subtraction_2" d="M-5572 16a9.01 9.01 0 0 1-9-9 9.011 9.011 0 0 1 9-9 9.01 9.01 0 0 1 9 9 9.009 9.009 0 0 1-9 9zm-.172-6.36a1.627 1.627 0 0 0-1.625 1.626 1.627 1.627 0 0 0 1.625 1.625 1.627 1.627 0 0 0 1.626-1.625 1.628 1.628 0 0 0-1.626-1.627zm.014-8.939h-.014c-1.643.009-1.636 1.59-1.626 3.591v.472c0 2.24.729 4.063 1.625 4.063s1.626-1.823 1.626-4.063V4.296c.006-1.419.012-2.641-.567-3.223a1.4 1.4 0 0 0-1.044-.373z" class="cls-1" data-name="Subtraction 2" transform="translate(5581 2)"/>
</svg>
