<svg xmlns="http://www.w3.org/2000/svg" viewBox="0 0 68.457 43.813">
    <defs>
        <style>
            .cls-1{fill:#3886be;fill-rule:evenodd}
        </style>
    </defs>
    <g id="icon-1-mail-envelope" transform="translate(-4 -8)">
        <g id="icon-1-mail-envelope-2" data-name="icon-1-mail-envelope">
            <path id="mail-envelope" d="M9.486 8A5.476 5.476 0 0 0 4 13.46v32.892a5.461 5.461 0 0 0 5.486 5.46h57.485a5.476 5.476 0 0 0 5.486-5.46V13.46A5.461 5.461 0 0 0 66.971 8zm0 2.738A2.75 2.75 0 0 0 6.738 13.5v32.817a2.734 2.734 0 0 0 2.747 2.757h57.487a2.75 2.75 0 0 0 2.747-2.757V13.5a2.734 2.734 0 0 0-2.747-2.757zm46.542 5.477v8.215h8.215v-8.215zm2.738 2.738v2.738H61.5v-2.738zm-46.551 16.43v2.738h21.906v-2.738zm0-19.168v2.738h10.953v-2.738zm0 24.645v2.74h21.906v-2.741z" class="cls-1"/>
        </g>
    </g>
</svg>
